<svg xmlns="http://www.w3.org/2000/svg" viewBox="0 0 340.1 322.9"><path d="M0 0h340.1v322.9H0z"/><g fill="#FFF"><path d="M24.2 251.9h8.9c4.2 0 7.2.6 9 1.9 1.9 1.2 2.8 3.2 2.8 5.9 0 1.9-.5 3.4-1.6 4.6-1 1.2-2.5 2-4.5 2.3v.2c4.8.8 7.1 3.3 7.1 7.5 0 2.8-.9 5-2.8 6.6-1.9 1.6-4.5 2.4-7.9 2.4h-11v-31.4zm3.7 13.4h6c2.6 0 4.4-.4 5.6-1.2 1.1-.8 1.7-2.2 1.7-4.1 0-1.8-.6-3-1.9-3.8-1.3-.8-3.3-1.2-6-1.2h-5.4v10.3zm0 3.1v11.7h6.5c2.5 0 4.4-.5 5.7-1.5 1.3-1 1.9-2.5 1.9-4.6 0-1.9-.7-3.4-2-4.3-1.3-.9-3.3-1.4-6-1.4h-6.1zM52.7 283.2v-31.4h3.6v31.4h-3.6zM87.6 283.2h-4.3L71.9 268l-3.3 2.9v12.3H65v-31.4h3.6v15.5l14.2-15.5h4.3l-12.6 13.6 13.1 17.8zM109.4 283.2H91.9v-31.4h17.5v3.2H95.5v10.1h13v3.2h-13V280h13.8v3.2zM160.7 283.2h-10l-3-13.7c-.1-.6-.4-1.7-.7-3.4-.3-1.7-.5-3.1-.7-4.3-.1.9-.3 2.1-.6 3.5s-.5 2.6-.8 3.8c-.3 1.2-1.3 5.8-3.1 14.1h-10l-7.8-31.4h8.2l3.4 15.7c.8 3.5 1.3 6.2 1.6 8.3.2-1.5.5-3.4 1-5.9.5-2.5.9-4.6 1.3-6.2l2.8-11.9h7.8l2.7 11.9c.5 1.9.9 4.1 1.4 6.6.5 2.5.8 4.3.9 5.6.2-1.6.7-4.3 1.5-8.3l3.5-15.8h8.2l-7.6 31.4zM189.9 283.2l-1.5-5.9h-10.2l-1.6 5.9h-9.3l10.2-31.5h11.3l10.4 31.5h-9.3zm-3.3-12.8l-1.4-5.1c-.3-1.1-.7-2.6-1.1-4.4-.5-1.8-.7-3.1-.9-3.9-.1.7-.4 1.9-.8 3.6-.4 1.7-1.2 5-2.5 9.9h6.7zM232.4 283.2h-11.1l-11.5-22.1h-.2c.3 3.5.4 6.1.4 8v14.1h-7.5v-31.4h11.1l11.4 21.8h.1c-.2-3.2-.3-5.7-.3-7.6v-14.2h7.5v31.4zM253 283.2h-8.5v-24.4h-7.7v-6.9h23.8v6.9H253v24.4zM283.8 283.2h-18.6v-31.4h18.6v6.8h-10.1v4.9h9.4v6.8h-9.4v5.9h10.1v7zM315.9 266.9c0 5.2-1.4 9.3-4.3 12.1-2.9 2.8-6.9 4.2-12.1 4.2h-10.1v-31.4h10.9c5 0 8.9 1.3 11.7 3.9 2.5 2.6 3.9 6.3 3.9 11.2zm-8.8.3c0-2.9-.6-5-1.7-6.4-1.1-1.4-2.9-2.1-5.2-2.1h-2.5v17.6h1.9c2.6 0 4.5-.7 5.7-2.2 1.2-1.5 1.8-3.8 1.8-6.9z"/></g><path fill="#FFF" d="M257.1 101.8c-3.3 0-6.6.3-9.8.9L240.5 79l-5.4-19.3h22.1c6.3 0 9.2 3.7 9.2 7.4 0 2.1-.9 4.1-2.6 5.6-2.3 2-5.8 3.1-10.3 3.1v11.9c9.3 0 15-3.3 18.2-6.1 4.2-3.7 6.6-9 6.6-14.5 0-5.1-2-9.9-5.7-13.5-3.9-3.8-9.2-5.8-15.4-5.8h-37.8l7.5 26.9h-89.7l-3-8.1H154v-12h-48v11.9h15.4l5 13.3-18.1 28c-7.6-3.9-16.2-6-25.3-6-30.9 0-56 25.1-56 56s25.1 56 56 56c28.9 0 52.7-22 55.7-50h7.4c2.5 6.9 9 11.8 16.8 11.8 9.8 0 17.8-8 17.8-17.8 0-3.4-.9-6.5-2.6-9.2l53.8-56.4 4 13.8c-20.4 8.4-34.8 28.4-34.8 51.8 0 30.9 25.1 56 56 56s56-25.1 56-56c0-30.8-25.1-56-56-56zm-36.3-15.2l-52 54.5c-1.9-.7-3.9-1-5.9-1-.4 0-.9 0-1.3.1l-20-53.5h79.2zm-89.2 7.2l19.1 51.1c-2 1.9-3.6 4.3-4.5 7h-7.4c-1.6-15.1-9.2-28.4-20.4-37.5l13.2-20.6zm-4.9 58.1H94l17.8-27.4c7.9 6.8 13.4 16.5 14.9 27.4zm-43.7 50c-24.3 0-44.1-19.8-44.1-44.1s19.8-44.1 44.1-44.1c6.7 0 13.1 1.5 18.7 4.2L72 163.8h54.6c-2.9 21.5-21.3 38.1-43.6 38.1zm79.9-38.2c-3.2 0-5.9-2.6-5.9-5.9 0-3.2 2.6-5.9 5.9-5.9 3.2 0 5.9 2.6 5.9 5.9 0 3.3-2.7 5.9-5.9 5.9zm94.2 38.2c-24.3 0-44.1-19.8-44.1-44.1 0-17.9 10.8-33.4 26.2-40.3l12.2 41.9 11.4-3.3-12.2-41.9c2.1-.3 4.3-.5 6.4-.5 24.3 0 44.1 19.8 44.1 44.1.1 24.3-19.7 44.1-44 44.1zm0 0"/></svg>