<?xml version="1.0" encoding="iso-8859-1"?>
<!-- Generator: Adobe Illustrator 19.0.0, SVG Export Plug-In . SVG Version: 6.00 Build 0)  -->
<svg version="1.1" id="Layer_1" xmlns="http://www.w3.org/2000/svg" xmlns:xlink="http://www.w3.org/1999/xlink" x="0px" y="0px"
	 viewBox="0 0 512 512" style="enable-background:new 0 0 512 512;" xml:space="preserve">
<g>
	<path style="fill:#C62828;" d="M474.303,502.643l-74.987-75.215c-6.112-6.13-6.096-16.054,0.033-22.165
		c6.129-6.112,16.053-6.097,22.165,0.033l74.987,75.215c6.112,6.13,6.096,16.054-0.033,22.165
		C490.34,508.786,480.417,508.776,474.303,502.643z"/>
	<path style="fill:#C62828;" d="M439.503,174.911c-20.114-42.733-54.652-77.377-97.25-97.551
		c-7.979-3.778-11.255-13.399-7.27-21.254C351.048,24.429,383.02,4.75,418.422,4.75C470.021,4.749,512,46.835,512,98.564
		c0,35.474-19.616,67.52-51.193,83.633C452.975,186.194,443.297,182.969,439.503,174.911z"/>
</g>
<g>
	<path style="fill:#E53935;" d="M15.531,502.677c-6.13-6.112-6.145-16.035-0.033-22.165l74.987-75.215
		c6.112-6.13,16.036-6.145,22.165-0.033c6.13,6.112,6.145,16.035,0.033,22.165l-74.987,75.215
		C31.585,508.774,21.661,508.788,15.531,502.677z"/>
	<path style="fill:#E53935;" d="M51.193,182.197C19.616,166.085,0,134.039,0,98.564C0,46.835,41.979,4.749,93.578,4.749
		c35.402,0,67.374,19.679,83.439,51.356c3.993,7.873,0.691,17.484-7.27,21.254c-42.597,20.174-77.135,54.817-97.25,97.551
		C68.681,183.016,58.981,186.172,51.193,182.197z"/>
</g>
<path style="fill:#E57373;" d="M256,496.293c-129.112,0-234.152-105.337-234.152-234.815S126.888,26.664,256,26.664
	s234.152,105.337,234.152,234.815S385.112,496.293,256,496.293z"/>
<path style="fill:#E53935;" d="M256,26.664v469.629c129.112,0,234.152-105.337,234.152-234.815S385.112,26.664,256,26.664z"/>
<path style="fill:#FFF176;" d="M256,441.508c-98.995,0-179.532-80.761-179.532-180.03S157.005,81.449,256,81.449
	s179.532,80.761,179.532,180.03S354.995,441.508,256,441.508z"/>
<path style="fill:#FDD835;" d="M256,81.449v360.059c98.995,0,179.532-80.761,179.532-180.03S354.995,81.449,256,81.449z"/>
<path style="fill:#36495E;" d="M201.549,316.095c-6.13-6.112-6.145-16.035-0.033-22.165L240.327,255v-88.849
	c0-8.656,7.018-15.673,15.673-15.673s15.673,7.018,15.673,15.673v95.326c0,4.148-1.645,8.128-4.574,11.067l-43.385,43.517
	C217.602,322.192,207.678,322.207,201.549,316.095z"/>
<g>
</g>
<g>
</g>
<g>
</g>
<g>
</g>
<g>
</g>
<g>
</g>
<g>
</g>
<g>
</g>
<g>
</g>
<g>
</g>
<g>
</g>
<g>
</g>
<g>
</g>
<g>
</g>
<g>
</g>
</svg>
