<?xml version="1.0" encoding="utf-8"?>
<!-- Generator: Adobe Illustrator 19.2.1, SVG Export Plug-In . SVG Version: 6.00 Build 0)  -->
<svg version="1.1" id="Layer_1" xmlns="http://www.w3.org/2000/svg" xmlns:xlink="http://www.w3.org/1999/xlink" x="0px" y="0px"
	 viewBox="0 0 512 512" style="enable-background:new 0 0 512 512;" xml:space="preserve">
<style type="text/css">
	.st0{fill:#D3C58B;}
	.st1{fill:#FF4800;}
	.st2{fill:#841C00;}
	.st3{fill:#294082;}
	.st4{fill:#180B47;}
	.st5{fill:#D8BF77;}
</style>
<path class="st0" d="M330.4,489.9l-136-49.5c-23.1-8.4-35-34-26.6-57.1L289.7,48.7c8.4-23.1,34-35,57.1-26.6l136,49.5
	c23.1,8.4,35,34,26.6,57.1L387.5,463.3C379.1,486.4,353.5,498.3,330.4,489.9z"/>
<path class="st1" d="M263,121.9l26.6-73.2c8.4-23.1,34-35,57.1-26.6l136,49.5c23.1,8.4,35,34,26.6,57.1l-26.6,73.2L263,121.9z"/>
<path class="st2" d="M490.3,180.9l-7.6,20.9l-26.1-9.5c-2.9-1.1-4.4-4.2-3.3-7.1l3.8-10.5c1.1-2.9,4.2-4.4,7.1-3.3L490.3,180.9z
	 M432.7,160l-162.1-59l-7.6,20.9l162.1,59c2.9,1.1,6.1-0.4,7.1-3.3l3.8-10.5C437.1,164.2,435.6,161,432.7,160z"/>
<path class="st3" d="M356.7,512H22.3C10,512,0,502,0,489.7V22.3C0,10,10,0,22.3,0h334.4c24.6,0,44.5,19.9,44.5,44.5v423
	C401.2,492.1,381.2,512,356.7,512z"/>
<path class="st4" d="M66.8,512H22.3C10,512,0,502,0,489.7V22.3C0,10,10,0,22.3,0h44.5V512z"/>
<g id="Layer_x0020_1">
	<path id="path10" class="st5" d="M223.9,90.6c-5.4,6.1-8.6,14.1-8.6,22.8c0.3,19.2,2.7,38.4,2.9,57.7c0.4,17.9-4.9,34.7-11.5,51.1
		c-2.2,4.5-4.5,9-6.9,13.4l-6.9-1.4c-6.3-1.3-10.3-7.3-9.1-13.5c1.1-5.5,5.9-9.3,11.3-9.3l2.5,0.3l-5.6-47
		c-1.9-20.9-12.6-39.3-28.5-51.3c-2.8-2-5.7-3.9-8.7-5.6v167h38.6c2.9,15.7,11.5,29.3,23.6,38.7c2.9,1.9,5.3,4.6,7,7.7
		c1.7-3.1,4.1-5.7,7-7.7c12.1-9.4,20.7-23,23.6-38.7h38.6v-167c-3,1.7-5.9,3.5-8.7,5.6c-15.9,12-26.7,30.4-28.5,51.3l-5.6,47
		l2.5-0.3c5.4,0,10.2,3.8,11.3,9.3c1.3,6.2-2.8,12.3-9.1,13.5l-6.9,1.4c-2.4-4.5-4.7-8.9-6.9-13.4c-6.5-16.4-11.9-33.2-11.5-51.1
		c0.2-19.2,2.6-38.4,2.9-57.7C232.5,104.7,229.2,96.7,223.9,90.6L223.9,90.6z M166.3,132c7.5,8.7,12.5,19.6,14,31.6l4.6,38.8
		c-5.9,2.9-10.4,8.3-12.1,14.8h-6.5V132L166.3,132z M281.5,132v85.2H275c-1.7-6.5-6.2-11.8-12.1-14.8l4.6-38.8
		C269,151.6,274,140.7,281.5,132L281.5,132z M223.9,209.9c3.1,10.1,7.4,19.7,12.6,28.7c-5,1.6-9.4,4.5-12.6,8.5
		c-3.2-4-7.6-7-12.6-8.5C216.5,229.6,220.8,220,223.9,209.9z M166.3,228.7h6.5c2.1,8,8.3,14.3,16.2,16.4l5.5,1.3
		c-1.5,5.4-2.3,11-2.3,16.9h-25.9L166.3,228.7L166.3,228.7z M275,228.7h6.5v34.6h-25.9c0-5.8-0.8-11.5-2.3-16.9l5.5-1.3
		C266.7,243,272.9,236.7,275,228.7L275,228.7z M205.8,249.1c7,1,12.4,7,12.4,14.2h-14.4C203.7,258.4,204.5,253.6,205.8,249.1z
		 M242,249.1c1.3,4.5,2,9.3,2,14.2h-14.4C229.6,256.1,235,250.1,242,249.1L242,249.1z M205,274.9h13.1v24.3
		C211.8,292.5,207.2,284.1,205,274.9z M229.6,274.9h13.1c-2.1,9.3-6.7,17.6-13.1,24.3V274.9z"/>
</g>
<g>
	<path class="st5" d="M108.1,389.1c2.5-0.4,5.8-0.8,10-0.8c5.2,0,9,1.2,11.4,3.4c2.2,1.9,3.5,4.9,3.5,8.5c0,3.7-1.1,6.5-3.1,8.7
		c-2.8,2.9-7.3,4.4-12.4,4.4c-1.6,0-3-0.1-4.2-0.4v16.2h-5.2V389.1z M113.4,408.6c1.1,0.3,2.6,0.4,4.3,0.4c6.3,0,10.2-3.1,10.2-8.7
		c0-5.3-3.8-7.9-9.6-7.9c-2.3,0-4,0.2-4.9,0.4V408.6z"/>
	<path class="st5" d="M141.6,416.4l-4.2,12.7H132l13.8-40.5h6.3l13.8,40.5h-5.6l-4.3-12.7H141.6z M154.9,412.3l-4-11.7
		c-0.9-2.6-1.5-5-2.1-7.4h-0.1c-0.6,2.4-1.3,4.9-2,7.3l-4,11.7H154.9z"/>
	<path class="st5" d="M171.1,422.7c2.3,1.4,5.8,2.6,9.4,2.6c5.3,0,8.5-2.8,8.5-6.9c0-3.8-2.2-5.9-7.6-8c-6.6-2.3-10.7-5.8-10.7-11.5
		c0-6.3,5.2-11,13.1-11c4.1,0,7.1,1,9,2l-1.4,4.3c-1.3-0.7-4-1.9-7.7-1.9c-5.5,0-7.6,3.3-7.6,6.1c0,3.8,2.5,5.6,8.1,7.8
		c6.8,2.6,10.3,5.9,10.3,11.9c0,6.2-4.6,11.7-14.2,11.7c-3.9,0-8.2-1.1-10.3-2.6L171.1,422.7z"/>
	<path class="st5" d="M200.7,422.7c2.3,1.4,5.8,2.6,9.4,2.6c5.3,0,8.5-2.8,8.5-6.9c0-3.8-2.2-5.9-7.6-8c-6.6-2.3-10.7-5.8-10.7-11.5
		c0-6.3,5.2-11,13.1-11c4.1,0,7.1,1,9,2l-1.4,4.3c-1.3-0.7-4-1.9-7.7-1.9c-5.5,0-7.6,3.3-7.6,6.1c0,3.8,2.5,5.6,8,7.8
		c6.8,2.6,10.3,5.9,10.3,11.9c0,6.2-4.6,11.7-14.2,11.7c-3.9,0-8.2-1.1-10.3-2.6L200.7,422.7z"/>
	<path class="st5" d="M231,389.1c2.5-0.4,5.8-0.8,10-0.8c5.2,0,9,1.2,11.4,3.4c2.2,1.9,3.5,4.9,3.5,8.5c0,3.7-1.1,6.5-3.1,8.7
		c-2.8,2.9-7.3,4.4-12.4,4.4c-1.6,0-3-0.1-4.2-0.4v16.2H231V389.1z M236.3,408.6c1.1,0.3,2.6,0.4,4.3,0.4c6.3,0,10.2-3.1,10.2-8.7
		c0-5.3-3.8-7.9-9.6-7.9c-2.3,0-4,0.2-4.9,0.4V408.6z"/>
	<path class="st5" d="M297.6,408.4c0,13.9-8.5,21.3-18.8,21.3c-10.7,0-18.2-8.3-18.2-20.5c0-12.9,8-21.3,18.8-21.3
		C290.4,388,297.6,396.4,297.6,408.4z M266.2,409.1c0,8.7,4.7,16.4,12.9,16.4c8.3,0,13-7.6,13-16.8c0-8-4.2-16.5-12.9-16.5
		C270.5,392.2,266.2,400.2,266.2,409.1z"/>
	<path class="st5" d="M304.4,389.2c2.6-0.5,6.4-0.8,10-0.8c5.6,0,9.2,1,11.7,3.3c2,1.8,3.2,4.6,3.2,7.7c0,5.3-3.4,8.9-7.6,10.3v0.2
		c3.1,1.1,5,4,5.9,8.2c1.3,5.6,2.3,9.6,3.1,11.1h-5.4c-0.7-1.1-1.6-4.6-2.7-9.7c-1.2-5.6-3.4-7.7-8.1-7.9h-4.9v17.5h-5.2V389.2z
		 M309.6,407.6h5.3c5.6,0,9.1-3.1,9.1-7.7c0-5.2-3.8-7.5-9.3-7.6c-2.5,0-4.3,0.2-5.2,0.5V407.6z"/>
	<path class="st5" d="M344.9,393.1h-12.3v-4.4h30v4.4h-12.4v36h-5.3V393.1z"/>
</g>
</svg>
