<?xml version="1.0" encoding="utf-8"?>
<!-- Generator: Adobe Illustrator 19.2.1, SVG Export Plug-In . SVG Version: 6.00 Build 0)  -->
<svg version="1.1" id="Layer_1" xmlns="http://www.w3.org/2000/svg" xmlns:xlink="http://www.w3.org/1999/xlink" x="0px" y="0px"
	 viewBox="0 0 512 512" style="enable-background:new 0 0 512 512;" xml:space="preserve">
<style type="text/css">
	.st0{fill:#E6EAEA;}
	.st1{fill:#F0353D;}
	.st2{fill:#CDD4D5;}
	.st3{fill:#B4B6BC;}
	.st4{fill:#009BCA;}
	.st5{fill:#4BB9EC;}
	.st6{fill:#868491;}
	.st7{fill:#5C546A;}
	.st8{fill:#48BBEE;}
	.st9{fill:#0E94D7;}
	.st10{fill:#00E389;}
	.st11{fill:#00BBBB;}
	.st12{fill:#FFEDB9;}
	.st13{fill:#FFD586;}
</style>
<path class="st0" d="M274.5,311.4L232.3,44.9c-0.7-4.3-4.7-7.3-9-6.6L6.7,72.7c-2.1,0.3-3.9,1.5-5.2,3.2c-1.2,1.7-1.7,3.8-1.4,5.9
	l42.3,266.5c0.3,2.1,1.5,3.9,3.2,5.2c1.4,1,3,1.5,4.6,1.5c0.4,0,0.8,0,1.2-0.1L268,320.5c2.1-0.3,3.9-1.5,5.2-3.2
	C274.4,315.6,274.9,313.5,274.5,311.4z"/>
<g>
	<path class="st1" d="M68.4,147.1c-3.8,0-7.2-2.8-7.8-6.7c-0.7-4.3,2.3-8.4,6.6-9l116.6-18.5c4.3-0.7,8.4,2.3,9,6.6
		c0.7,4.3-2.3,8.4-6.6,9L69.7,147C69.3,147.1,68.8,147.1,68.4,147.1z"/>
	<path class="st1" d="M79,213.7c-3.8,0-7.2-2.8-7.8-6.7c-0.7-4.3,2.3-8.4,6.6-9l116.6-18.5c4.3-0.7,8.4,2.3,9,6.6
		c0.7,4.3-2.3,8.4-6.6,9L80.3,213.6C79.8,213.7,79.4,213.7,79,213.7z"/>
	<path class="st1" d="M89.6,280.4c-3.8,0-7.2-2.8-7.8-6.7c-0.7-4.3,2.3-8.4,6.6-9L205,246.2c4.3-0.7,8.4,2.3,9,6.6
		c0.7,4.3-2.3,8.4-6.6,9L90.8,280.3C90.4,280.3,90,280.4,89.6,280.4z"/>
</g>
<path class="st2" d="M508.7,132.6L331.3,3.7c-1.7-1.2-3.8-1.7-5.9-1.4c-2.1,0.3-3.9,1.5-5.2,3.2L161.7,223.8
	c-1.2,1.7-1.7,3.8-1.4,5.9c0.3,2.1,1.5,3.9,3.2,5.2l177.4,128.8c1.4,1,3,1.5,4.6,1.5c2.4,0,4.9-1.1,6.4-3.3l158.5-218.4
	C513.1,140.1,512.3,135.1,508.7,132.6z"/>
<g>
	<path class="st1" d="M423.5,171.7c-1.6,0-3.2-0.5-4.6-1.5l-95.5-69.4c-3.5-2.6-4.3-7.5-1.8-11c2.6-3.5,7.5-4.3,11-1.8l95.5,69.4
		c3.5,2.6,4.3,7.5,1.8,11C428.4,170.6,426,171.7,423.5,171.7z"/>
	<path class="st1" d="M383.9,226.3c-1.6,0-3.2-0.5-4.6-1.5l-95.5-69.4c-3.5-2.6-4.3-7.5-1.8-11c2.6-3.5,7.5-4.3,11-1.8l95.5,69.4
		c3.5,2.6,4.3,7.5,1.8,11C388.7,225.2,386.3,226.3,383.9,226.3z"/>
	<path class="st1" d="M344.2,280.9c-1.6,0-3.2-0.5-4.6-1.5L244.1,210c-3.5-2.6-4.3-7.5-1.8-11c2.6-3.5,7.5-4.3,11-1.8l95.5,69.4
		c3.5,2.6,4.3,7.5,1.8,11C349.1,279.8,346.7,280.9,344.2,280.9z"/>
</g>
<path class="st0" d="M328.3,154H109.1c-4.4,0-7.9,3.5-7.9,7.9v269.8c0,4.4,3.5,7.9,7.9,7.9h219.3c4.4,0,7.9-3.5,7.9-7.9V161.9
	C336.3,157.5,332.7,154,328.3,154z"/>
<path class="st2" d="M109.1,154c-4.4,0-7.9,3.5-7.9,7.9v269.8c0,4.4,3.5,7.9,7.9,7.9h109.6V154H109.1z"/>
<g>
	<path class="st1" d="M283,237.3h-39.6c-1.5,0-2.6-3.5-2.6-7.9s1.2-7.9,2.6-7.9H283c1.5,0,2.6,3.5,2.6,7.9S284.5,237.3,283,237.3z"
		/>
	<path class="st1" d="M277.8,304.7H159.7c-4.4,0-7.9-3.5-7.9-7.9s3.5-7.9,7.9-7.9h118.1c4.4,0,7.9,3.5,7.9,7.9
		S282.1,304.7,277.8,304.7z"/>
	<path class="st1" d="M277.8,372.2H159.7c-4.4,0-7.9-3.5-7.9-7.9s3.5-7.9,7.9-7.9h118.1c4.4,0,7.9,3.5,7.9,7.9
		S282.1,372.2,277.8,372.2z"/>
</g>
<g>
	<g>
		<path class="st3" d="M362.7,453.2c-7.1-7.1-24.3-24.3-31.4-31.4c-1.7-1.7-4.5-1.7-6.3,0l0,0c-19.2,19.2-22,59.6-22,59.6
			s40.4-2.7,59.6-22l0,0C364.4,457.7,364.4,454.9,362.7,453.2z"/>
	</g>
	<g>
		<path class="st3" d="M368.9,384.1l31.4,31.4c1.7,1.7,4.5,1.7,6.3,0l84.7-84.7c1.7-1.7,1.7-4.5,0-6.3l-15.7-15.7L460,293.1
			c-1.7-1.7-4.5-1.7-6.3,0L369,377.8C367.2,379.6,367.2,382.4,368.9,384.1z"/>
	</g>
	<g>
		<path class="st4" d="M488.2,321.3l12.6-12.6c3.5-3.5,3.5-9.1,0-12.6l-12.6-12.6c-3.5-3.5-9.1-3.5-12.6,0L463,296.1L488.2,321.3z"
			/>
	</g>
	<g>
		<path class="st4" d="M372.1,437.5c3.5,3.5,3.5,9.1,0,12.6s-9.1,3.5-12.6,0L334.4,425c-3.5-3.5-3.5-9.1,0-12.6s9.1-3.5,12.6,0
			L372.1,437.5z"/>
	</g>
	<g>
		<path class="st5" d="M372.1,437.5l-12.6-12.6l-12.6,12.6l12.6,12.6c3.5,3.5,9.1,3.5,12.6,0C375.5,446.6,375.5,440.9,372.1,437.5z"
			/>
	</g>
	<g>
		<path class="st4" d="M384.6,424.9c3.5,3.5,3.5,9.1,0,12.6s-9.1,3.5-12.6,0l-25-25.1c-3.5-3.5-3.5-9.1,0-12.6s9.1-3.5,12.6,0
			L384.6,424.9z"/>
	</g>
	<g>
		<path class="st5" d="M384.6,424.9L372,412.3l-12.6,12.6l12.6,12.6c3.5,3.5,9.1,3.5,12.6,0S388.1,428.4,384.6,424.9z"/>
	</g>
	<g>
		<path class="st4" d="M397.2,412.4c3.5,3.5,3.5,9.1,0,12.6s-9.1,3.5-12.6,0l-25.1-25.1c-3.5-3.5-3.5-9.1,0-12.6s9.1-3.5,12.6,0
			L397.2,412.4z"/>
	</g>
	<g>
		<path class="st5" d="M397.2,412.4l-12.6-12.6L372,412.3l12.6,12.6c3.5,3.5,9.1,3.5,12.6,0S400.7,415.8,397.2,412.4z"/>
	</g>
	<g>
		<path class="st6" d="M346.9,437.4c-6.1-6.1-12.1-12.1-15.6-15.6c-1.7-1.7-4.5-1.7-6.3,0l0,0c-18.7,18.7-21.8,57.5-22,59.4
			L346.9,437.4z"/>
	</g>
	<g>
		<path class="st6" d="M475.6,308.7L460,293.1c-1.7-1.7-4.5-1.7-6.3,0L369,377.8c-1.7,1.7-1.7,4.5,0,6.3l15.6,15.6L475.6,308.7z"/>
	</g>
	<g>
		<g>
			<path class="st7" d="M428.6,418.6c-1.7-1.7-1.7-4.5,0-6.3l56.5-56.5c1.7-1.7,1.7-4.5,0-6.3l-43.9-43.9c-1.7-1.7-1.7-4.5,0-6.3
				s4.5-1.7,6.3,0l43.9,43.9c5.2,5.2,5.2,13.6,0,18.8l-56.5,56.5C433.1,420.4,430.3,420.4,428.6,418.6z"/>
		</g>
	</g>
	<g>
		<path class="st5" d="M500.8,296.2l-6.4-6.4l-18.8,18.8l12.6,12.6l12.6-12.6C504.2,305.3,504.2,299.7,500.8,296.2z"/>
	</g>
	<g>
		<path class="st7" d="M293.6,484.5c-1.7,1.7-1.7,4.5,0,6.3s4.5,1.7,6.3,0l10.2-10.2l-6.3-6.3L293.6,484.5z"/>
	</g>
</g>
<g>
	<path class="st8" d="M190,192.5c0.2,0.1,0.5,0.1,0.7,0.2C190.5,192.6,190.3,192.6,190,192.5z"/>
	<path class="st8" d="M189.2,192.3c0.1,0,0.3,0.1,0.4,0.1C189.5,192.4,189.3,192.4,189.2,192.3z"/>
	<path class="st8" d="M191.1,192.8c0.2,0,0.3,0.1,0.5,0.1C191.4,192.8,191.2,192.8,191.1,192.8z"/>
	<path class="st8" d="M191.8,192.9c0.6,0.2,1.2,0.3,1.8,0.5C193,193.3,192.4,193.1,191.8,192.9z"/>
	<path class="st8" d="M182.8,191.6c0.1,0,0.2,0,0.3,0C183,191.6,182.9,191.6,182.8,191.6z"/>
	<path class="st8" d="M193.6,193.5c0.2,0.1,0.4,0.1,0.6,0.2C194,193.6,193.8,193.6,193.6,193.5z"/>
	<path class="st8" d="M183.7,191.7c0.1,0,0.2,0,0.3,0C183.9,191.7,183.8,191.7,183.7,191.7z"/>
	<path class="st8" d="M184.8,191.7c0,0,0.1,0,0.1,0C184.9,191.7,184.9,191.7,184.8,191.7z"/>
	<path class="st8" d="M187.6,192.1c0.1,0,0.2,0,0.3,0C187.8,192.1,187.7,192.1,187.6,192.1z"/>
	<path class="st8" d="M176.7,220.8c1.3,0,2.6,0.4,3.8,1.1l3.2,2.1c0.6,0.4,1.4,0.5,2.2,0.3l5.7-1.9l1-0.9c0.6-0.5,0.9-1.3,0.9-2
		c0-0.7-0.2-1.3-0.7-1.8l-6.1,1.8c-0.2,0.1-0.4,0-0.6-0.1l-4.1-3.7c-0.3-0.2-0.6-0.2-0.7-0.1c-0.1,0-0.4,0.2-0.4,0.5l0.4,2.8
		c0,0.3-0.1,0.5-0.3,0.6c-0.2,0.1-0.5,0.1-0.7-0.1l-3.4-3c-1.2-0.6-2.6-0.4-3.6,0.5l-1.1,2.7c-0.2,0.4-0.5,0.8-0.8,1.1l-1.7,1.3
		l5.8-1C175.9,220.9,176.3,220.8,176.7,220.8z"/>
	<path class="st8" d="M194.3,193.7c3,1,5.8,2.5,8.4,4.2c0,0,0,0,0,0c2.6,1.7,5,3.8,7.1,6.1l0,0c1.1,1.3,2.2,2.6,3.1,4
		c0,0,0.1,0.1,0.1,0.1c0.4,0.6,0.7,1.1,1.1,1.7c0.1,0.1,0.1,0.2,0.2,0.3c0.3,0.5,0.5,0.9,0.8,1.4l0,0c2.1,4,3.5,8.3,4.1,13
		c-0.1,0-0.2,0-0.3,0l-12-3.8l0.6,2.5c0.1,0.5,0.4,1,0.9,1.2c0.5,0.3,1,0.3,1.5,0.1l1.4-0.5c0.2-0.1,0.4,0,0.6,0.1
		c0.2,0.1,0.3,0.3,0.3,0.5v3.4v0c0,1.4-0.7,2.7-1.8,3.5l-3.6,2.9c-0.5,0.4-1.4,0.3-1.8-0.2l-5.8-7.7c-0.6-0.8-1.4-1.4-2.4-1.7
		l-2.3-0.8l9.4,12.2c0.8,0.7,1.9,1.1,3.1,1l1.8-0.1c0.2,0,0.4,0.1,0.5,0.2c0.1,0.1,0.2,0.3,0.1,0.5l-0.7,4c0,0.1-0.1,0.3-0.2,0.3
		l-7.3,6.9l-5.4,13.8c-0.1,0.2-0.2,0.3-0.4,0.4c-0.7,0.2-1.4,0.3-2.1,0.3c-1.3,0-2.5-0.3-3.7-1c-1.7-1-3-2.6-3.5-4.5
		c-0.4-1.5-0.6-2.5-0.6-3.1v-5.2l-0.8-0.3c-1.9-0.7-3.6-2-5-3.6l-1.9-2.4l-8.3,1.5c-0.4,0.1-0.7,0.1-1.1,0.1
		c2.4,8.8,7.9,16.3,15.3,21.3c-0.6,0-1.1,0-1.7,0c20.6,0,37.3-16.7,37.3-37.3C219.3,212.7,208.8,198.8,194.3,193.7z"/>
	<path class="st8" d="M185.7,191.8c0.1,0,0.2,0,0.3,0C185.9,191.8,185.8,191.8,185.7,191.8z"/>
	<path class="st8" d="M186.5,191.9c0.1,0,0.2,0,0.3,0C186.7,191.9,186.6,191.9,186.5,191.9z"/>
	<path class="st8" d="M193.1,215l1.9-1.4c0.1-0.1,0.1-0.1,0.2-0.2l0,0c0.3-0.4,0.4-1.1,0-1.5c-0.4-0.6-1.2-0.7-1.7-0.3l-1.6,1.2h-3
		c-0.7,0-1.2,0.6-1.2,1.2s0.6,1.2,1.2,1.2h0.7h2.8C192.6,215.2,192.9,215.1,193.1,215z"/>
	<path class="st8" d="M188.4,192.2c0.1,0,0.3,0,0.4,0.1C188.7,192.2,188.5,192.2,188.4,192.2z"/>
	<path class="st8" d="M199.9,213.8c0.3,0,0.5-0.1,0.7-0.2c0,0,0.1,0,0.1-0.1c0.2-0.2,0.3-0.4,0.4-0.7l0,0c0.1-0.3,0-0.7-0.2-1
		l-3.2-4.4c-0.4-0.6-1.2-0.7-1.7-0.3c-0.6,0.4-0.7,1.2-0.3,1.7l3.2,4.4C199.1,213.6,199.5,213.8,199.9,213.8z"/>
	<path class="st9" d="M168.3,244.9c-0.6,0-1.2-0.1-1.8-0.3c-0.7-0.2-1.3-0.6-1.8-1.1c0,0-0.1-0.1-0.1-0.1c-0.1,0-0.1-0.1-0.2-0.1
		c0,0-0.1-0.1-0.1-0.1c0,0-0.1-0.1-0.1-0.1c-0.1-0.1-0.1-0.1-0.2-0.2c0,0-0.1-0.1-0.1-0.1c-0.1-0.1-0.2-0.2-0.2-0.3l0,0v0l-0.9-1.3
		c-1.3-2-1.8-4.4-1.5-6.7c0,0,0-0.1,0-0.1c0,0,0-0.1,0-0.1c0-0.1,0-0.1,0-0.2c0,0,0,0,0,0c0.1-0.6,0.3-1.2,0.6-1.8
		c0.1-0.2,0.2-0.4,0.3-0.6c0,0,0,0,0,0l0,0l0,0l1.9-3.7l0-1.3c0-2,1.2-3.7,3.1-4.3l-1.7-0.5c-1.3-0.4-2.2-1.5-2.3-2.8l-0.1-1.7
		c-0.1-1.7,1.1-3.1,2.8-3.3l1.7-0.2v-2.9c0-0.2,0.1-0.4,0.2-0.5l4.9-3.7c0.3-0.3,0.6-0.6,0.8-0.9l0.9-1.5l-5.5,1.1
		c-0.2,0-0.4,0-0.5-0.1c-0.1-0.1-0.2-0.3-0.2-0.5v-1.7c0-1.7,0.8-3.3,2.1-4.4l7.8-6.3c0.2-0.2,0.5-0.2,0.7-0.1l5.5,3.1
		c0.1,0.1,0.3,0.1,0.5,0.1c0.2,0,0.3-0.2,0.4-0.3l2.1-3.4l0,0l0,0c5.6,0.8,10.9,2.9,15.4,5.9c0,0,0,0,0,0c-2.6-1.7-5.4-3.1-8.4-4.2
		c0,0,0,0,0,0c-0.2-0.1-0.4-0.1-0.6-0.2c0,0-0.1,0-0.1,0c-0.6-0.2-1.2-0.4-1.8-0.5c-0.1,0-0.2,0-0.2-0.1c-0.2,0-0.3-0.1-0.5-0.1
		c-0.1,0-0.2,0-0.3-0.1c-0.2-0.1-0.5-0.1-0.7-0.2c-0.1,0-0.3-0.1-0.4-0.1c-0.1,0-0.3-0.1-0.4-0.1c-0.1,0-0.3-0.1-0.4-0.1
		c-0.1,0-0.3,0-0.4-0.1c-0.2,0-0.3-0.1-0.5-0.1c-0.1,0-0.2,0-0.3,0c-0.3,0-0.5-0.1-0.8-0.1c-0.1,0-0.2,0-0.3,0c-0.2,0-0.4,0-0.6-0.1
		c-0.1,0-0.2,0-0.3,0c-0.2,0-0.5,0-0.7-0.1c0,0-0.1,0-0.1,0c-0.3,0-0.6,0-0.8-0.1c-0.1,0-0.2,0-0.3,0c-0.2,0-0.4,0-0.6,0
		c-0.1,0-0.2,0-0.3,0c-0.3,0-0.6,0-0.9,0c-20.6,0-37.3,16.7-37.3,37.3s16.7,37.3,37.3,37.3c0.6,0,1.1,0,1.7,0
		C176.3,261.3,170.7,253.8,168.3,244.9z M162.2,205.3c0.4-0.6,1.1-0.8,1.7-0.4l2,1.2c0.5,0.3,0.7,0.8,0.6,1.3l-0.9,4
		c-0.1,0.6-0.6,1-1.2,1c-0.1,0-0.2,0-0.3,0c-0.7-0.1-1.1-0.8-0.9-1.5l0.7-3.1l-1.2-0.8C162.1,206.7,161.9,205.9,162.2,205.3z"/>
	<path class="st10" d="M200.7,213.5C200.7,213.5,200.6,213.5,200.7,213.5C200.6,213.5,200.7,213.5,200.7,213.5z"/>
	<path class="st10" d="M183.7,224.1l1,0.7l1.2-0.4C185.1,224.6,184.3,224.5,183.7,224.1z"/>
	<path class="st10" d="M192.4,215.2L192.4,215.2c0.3,0,0.5-0.1,0.7-0.2l1.9-1.4l-1.9,1.4C192.9,215.1,192.6,215.2,192.4,215.2z"/>
	<path class="st10" d="M213.7,220.1l0.8,3l-7.7-2.5l12,3.8c0.1,0,0.2,0,0.3,0c-0.6-4.6-2-9-4.1-13l-1.2,3.9
		C213.3,216.9,213.3,218.6,213.7,220.1z"/>
	<path class="st10" d="M196,236.5l-0.1,0.2c-0.9,1.4-2.5,2.2-4.1,2.2h-14.6c-1.7,0-3.2,0.8-4.1,2.2l-2.3,3.5l-1.3,0.2
		c-1,0.2-2,0.1-2.8-0.2c0.6,0.2,1.2,0.3,1.8,0.3c0.4,0,0.7,0,1.1-0.1l8.3-1.5l1.9,2.4c1.3,1.6,3,2.9,5,3.6l0.8,0.3v5.2
		c0,0.6,0.2,1.6,0.6,3.1c0.5,1.9,1.8,3.5,3.5,4.5c1.1,0.6,2.4,1,3.7,1c0.7,0,1.4-0.1,2.1-0.3c0.2-0.1,0.3-0.2,0.4-0.4l5.4-13.8
		l7.3-6.9c0.1-0.1,0.2-0.2,0.2-0.3l0.7-4c0-0.2,0-0.4-0.1-0.5c-0.1-0.1-0.3-0.2-0.5-0.2l-1.8,0.1c-1.1,0.1-2.2-0.3-3.1-1l-5.4-0.8
		C197.5,235.3,196.6,235.7,196,236.5z"/>
	<path class="st10" d="M214,209.9c0.1,0.1,0.1,0.2,0.2,0.3C214.1,210,214.1,209.9,214,209.9z"/>
	<path class="st10" d="M212.8,208c0,0,0.1,0.1,0.1,0.1C212.9,208.1,212.9,208,212.8,208z"/>
	<path class="st10" d="M187.2,192C187.2,192,187.3,192,187.2,192c2.1,0.3,4.1,0.8,6,1.4c0.1,0,0.3,0.1,0.4,0.1
		c0.8,0.3,1.6,0.5,2.3,0.8c0.3,0.1,0.5,0.2,0.8,0.3c0.6,0.3,1.3,0.6,1.9,0.9c0.3,0.1,0.6,0.3,0.8,0.4c0.6,0.3,1.1,0.6,1.7,1
		c0.3,0.2,0.6,0.3,0.8,0.5c0.2,0.1,0.4,0.3,0.6,0.4c-15.2,0.7-28,10.5-33.2,24.1l0.3-0.1l1.7-1.3c0.4-0.3,0.7-0.6,0.8-1.1l1.1-2.7
		c1-0.9,2.4-1.1,3.6-0.5l3.4,3c0.2,0.2,0.5,0.2,0.7,0.1c0.2-0.1,0.4-0.4,0.3-0.6l-0.4-2.8c0-0.4,0.3-0.5,0.4-0.5
		c0.1,0,0.4-0.1,0.7,0.1l4.1,3.7c0.2,0.1,0.4,0.2,0.6,0.1l6.1-1.8l-3.3,1l-0.3-0.6c-0.5-1-0.4-2.2,0.5-2.9h-0.7
		c-0.7,0-1.2-0.6-1.2-1.2s0.6-1.2,1.2-1.2h3l1.6-1.2c0.6-0.4,1.3-0.3,1.7,0.3c0.3,0.5,0.3,1.1,0,1.5l1.6-0.5h1.6l0.4,0.5l-3.2-4.4
		c-0.4-0.6-0.3-1.3,0.3-1.7c0.6-0.4,1.3-0.3,1.7,0.3l3.2,4.4c0.2,0.3,0.3,0.6,0.2,1l2.5-0.7c1.3-0.4,2.4-1.2,3-2.4l3.1-5.7
		c-2.1-2.3-4.5-4.4-7.1-6.1C198.1,194.9,192.9,192.8,187.2,192L187.2,192z"/>
	<path class="st11" d="M162.7,207l1.2,0.8l-0.7,3.1c-0.1,0.7,0.3,1.3,0.9,1.5c0.1,0,0.2,0,0.3,0c0.6,0,1.1-0.4,1.2-1l0.9-4
		c0.1-0.5-0.1-1.1-0.6-1.3l-2-1.2c-0.6-0.4-1.4-0.2-1.7,0.4C161.9,205.9,162.1,206.7,162.7,207z"/>
	<path class="st11" d="M169.4,222c5.1-13.6,18-23.4,33.2-24.1c-0.2-0.1-0.4-0.3-0.6-0.4c-0.3-0.2-0.6-0.3-0.8-0.5
		c-0.6-0.3-1.1-0.7-1.7-1c-0.3-0.1-0.6-0.3-0.8-0.4c-0.6-0.3-1.2-0.6-1.9-0.9c-0.3-0.1-0.5-0.2-0.8-0.3c-0.8-0.3-1.5-0.6-2.3-0.8
		c-0.1,0-0.3-0.1-0.4-0.1c-1.9-0.6-3.9-1.1-5.9-1.4c0,0,0,0-0.1,0l0,0l-2.1,3.4c-0.1,0.1-0.2,0.3-0.4,0.3c-0.2,0-0.3,0-0.5-0.1
		l-5.5-3.1c-0.2-0.1-0.5-0.1-0.7,0.1l-7.8,6.3c-1.3,1.1-2.1,2.7-2.1,4.4v1.7c0,0.2,0.1,0.4,0.2,0.5c0.1,0.1,0.3,0.2,0.5,0.1l5.5-1.1
		l-0.9,1.5c-0.2,0.4-0.5,0.7-0.8,0.9l-4.9,3.7c-0.2,0.1-0.2,0.3-0.2,0.5v2.9l-1.7,0.2c-1.6,0.2-2.9,1.6-2.8,3.3l0.1,1.7
		c0.1,1.3,1,2.5,2.3,2.8l1.7,0.5L169.4,222z"/>
	<path class="st11" d="M161.4,237.5c-0.2-1-0.2-2.1,0-3.1c-0.4,2.3,0.1,4.7,1.5,6.7c-0.1-0.1-0.1-0.2-0.2-0.3
		C162,239.8,161.6,238.7,161.4,237.5z"/>
	<path class="st11" d="M161.4,234.3c0,0,0-0.1,0-0.1C161.4,234.2,161.4,234.3,161.4,234.3z"/>
	<path class="st11" d="M161.5,234C161.5,234,161.5,234,161.5,234C161.5,234,161.5,234,161.5,234z"/>
	<polygon class="st12" points="163.8,242.5 163.8,242.5 162.9,241.1 	"/>
	<path class="st12" d="M162.1,232.2c0.1-0.2,0.2-0.4,0.3-0.6C162.2,231.8,162.1,232,162.1,232.2z"/>
	<polygon class="st12" points="162.3,231.6 162.3,231.6 164.2,228 	"/>
	<path class="st12" d="M203.6,212.1l-2.5,0.7l0,0c-0.1,0.3-0.2,0.5-0.4,0.7c0,0-0.1,0.1-0.1,0.1c-0.2,0.2-0.5,0.2-0.7,0.2
		c-0.4,0-0.8-0.2-1-0.5l-0.4-0.5h-1.6l-1.6,0.5l0,0c-0.1,0.1-0.1,0.2-0.2,0.2l-1.9,1.4c-0.2,0.2-0.5,0.2-0.7,0.2h0h-2.8
		c-0.8,0.8-1,2-0.5,2.9l0.3,0.6l3.3-1c0.4,0.5,0.7,1.1,0.7,1.8c0,0.8-0.3,1.5-0.9,2l-1,0.9l-5.7,1.9l-1.2,0.4l-1-0.7l-3.2-2.1
		c-1.1-0.7-2.4-1.1-3.8-1.1c-0.4,0-0.8,0-1.2,0.1l-5.8,1l-0.3,0.1l-2.2,0.4l2.2-0.4c-1.5,4.1-2.4,8.5-2.4,13.2
		c0,3.4,0.5,6.7,1.3,9.8c-1.3,0-2.6-0.5-3.6-1.4c0.5,0.5,1.2,0.8,1.8,1.1c0.9,0.3,1.9,0.4,2.8,0.2l1.3-0.2l2.3-3.5
		c0.9-1.4,2.5-2.2,4.1-2.2h14.6c1.7,0,3.2-0.8,4.1-2.2l0.1-0.2c0.5-0.8,1.5-1.2,2.4-1.1l5.4,0.8l-9.4-12.2l2.3,0.8
		c1,0.3,1.8,0.9,2.4,1.7l5.8,7.7c0.4,0.6,1.2,0.7,1.8,0.2l3.6-2.9c1.1-0.8,1.8-2.1,1.8-3.5v0v-3.4c0-0.2-0.1-0.4-0.3-0.5
		c-0.2-0.1-0.4-0.2-0.6-0.1l-1.4,0.5c-0.5,0.2-1,0.1-1.5-0.1c-0.5-0.3-0.8-0.7-0.9-1.2l-0.6-2.5l7.7,2.5l-0.8-3
		c-0.4-1.6-0.4-3.2,0.1-4.8l1.2-3.9l0,0c-0.2-0.5-0.5-0.9-0.8-1.4c-0.1-0.1-0.1-0.2-0.2-0.3c-0.3-0.6-0.7-1.2-1.1-1.7
		c0,0-0.1-0.1-0.1-0.1c-1-1.4-2-2.7-3.1-4l0,0l-3.1,5.7C206,210.9,204.9,211.7,203.6,212.1z"/>
	<path class="st12" d="M164.5,243.3c0,0,0.1,0.1,0.2,0.1C164.6,243.4,164.5,243.4,164.5,243.3z"/>
	<path class="st12" d="M164,242.8c0,0,0.1,0.1,0.1,0.1C164.1,242.9,164,242.8,164,242.8z"/>
	<path class="st12" d="M164.2,243.1c0,0,0.1,0.1,0.1,0.1C164.3,243.2,164.3,243.1,164.2,243.1z"/>
	<path class="st12" d="M161.4,237.5c0.2,1.2,0.6,2.3,1.3,3.4C162,239.8,161.6,238.7,161.4,237.5z"/>
	<path class="st13" d="M168.3,244.9c-0.8-3.1-1.3-6.4-1.3-9.8c0-4.6,0.9-9.1,2.4-13.2l-2.2,0.4c-1.9,0.6-3.1,2.3-3.1,4.3l0,1.3
		l-1.9,3.7l0,0c0,0,0,0,0,0c-0.1,0.2-0.2,0.4-0.3,0.6c-0.2,0.6-0.4,1.2-0.6,1.8c0,0,0,0,0,0c0,0.1,0,0.1,0,0.2c0,0,0,0.1,0,0.1
		c0,0,0,0.1,0,0.1c-0.2,1-0.2,2.1,0,3.1c0.2,1.2,0.6,2.3,1.3,3.4c0.1,0.1,0.1,0.2,0.2,0.3l0.9,1.3l0,0c0.1,0.1,0.1,0.2,0.2,0.3
		c0,0,0.1,0.1,0.1,0.1c0.1,0.1,0.1,0.1,0.2,0.2c0,0,0.1,0.1,0.1,0.1c0,0,0.1,0.1,0.1,0.1c0,0,0.1,0.1,0.2,0.1c0,0,0.1,0.1,0.1,0.1
		C165.7,244.4,167,244.9,168.3,244.9z"/>
</g>
</svg>
