<?xml version="1.0" encoding="utf-8"?>
<!-- Generator: Adobe Illustrator 19.2.1, SVG Export Plug-In . SVG Version: 6.00 Build 0)  -->
<svg version="1.1" id="Layer_1" xmlns="http://www.w3.org/2000/svg" xmlns:xlink="http://www.w3.org/1999/xlink" x="0px" y="0px"
	 viewBox="0 0 512 512" style="enable-background:new 0 0 512 512;" xml:space="preserve">
<style type="text/css">
	.st0{fill:#ED2500;}
	.st1{fill:#C91C00;}
	.st2{fill:#FF9900;}
	.st3{fill:#E57500;}
	.st4{fill:#FFB64F;}
	.st5{fill:#FFFFFF;}
</style>
<g>
	<polygon class="st0" points="392.9,268.3 119.1,268.3 47.6,446.6 140.6,441.7 214.3,511.8 256,410.3 297.4,512 371.4,441.7 
		464.4,446.6 	"/>
</g>
<g>
	<polygon class="st1" points="392.9,268.3 256,268.3 256,410.3 297.4,512 371.4,441.7 464.4,446.6 	"/>
</g>
<g>
	<polygon class="st2" points="436.6,181.1 398.5,142.8 412.6,90.7 360.5,76.6 346.7,24.4 294.5,38.3 256.5,0 218.2,38.1 166.1,24 
		152,76.1 99.8,89.9 113.7,142.1 75.4,180.1 113.5,218.4 99.4,270.5 151.5,284.6 165.3,336.8 217.5,322.9 255.5,361.2 293.8,323.1 
		345.9,337.2 360,285.1 412.2,271.3 398.3,219.1 	"/>
</g>
<g>
	<polygon class="st3" points="436.6,181.1 398.5,142.8 412.6,90.7 360.5,76.6 346.7,24.4 294.5,38.3 256.5,0 256.4,0 256.4,360.3 
		293.8,323.1 345.9,337.2 360,285.1 412.2,271.3 398.3,219.1 	"/>
</g>
<g>
	<path class="st4" d="M256,92.9c-48.4,0-87.7,39.4-87.7,87.7s39.4,87.7,87.7,87.7s87.7-39.4,87.7-87.7S304.4,92.9,256,92.9z"/>
</g>
<g>
	<path class="st2" d="M256,92.9v175.5c48.4,0,87.7-39.4,87.7-87.7S304.4,92.9,256,92.9z"/>
</g>
<g>
	<path class="st5" d="M238.2,208.9l-6.9,23.3h-33.8l35.5-100.8h43.4l36.4,100.8h-35.3l-7.8-23.3H238.2z M265.1,189l-5.6-18.1
		c-1.8-5.7-4.2-13.9-6-19.9h-0.4c-1.8,6-3.6,14.2-5.4,19.9l-5.2,18.1H265.1z"/>
</g>
</svg>
