<svg id="Слой_1" xmlns="http://www.w3.org/2000/svg" viewBox="0 0 487 58.8"><style>.st0{fill:#FFFFFF;} .st1{opacity:0.7;} .st2{opacity:0.1;}</style><path class="st0" d="M2.6 36.2c.6 1.2 1.3 2.3 2.1 3.4l-.1.1c-.7.8-1.4 1.7-1.8 2.6-.1.2-.2.5-.2.7 0 .1 0 .3.1.4 0 .1.1.3.1.4 0-.1-.1-.2-.1-.3L.6 44.6.3 44c-.1-.3-.2-.6-.2-.9v-.6-.2c0-.4.1-.7.1-.9.1-.4.2-.6.2-.6.1-.2.1-.5.2-.7.3-.8.7-1.6 1.1-2.4.2-.5.5-1 .9-1.5zM10.4 34.6c-1.7 1.3-3.3 2.6-4.6 3.9l-.4.4-.6-1.8c-.5-.8-.9-1.6-1.2-2.4.2-.3.4-.5.5-.7.2-.3.5-.6.7-1 1.6.6 3.4 1.1 5.6 1.6zM11.9 25.5c-.1 1.3-.2 2.5-.2 3.8 0 1.3.1 2.6.2 3.9-2.5-.5-4.5-1-6-1.6 1.3-1.5 2.8-3.1 4.3-4.6.6-.4 1.1-1 1.7-1.5zM26.1 22.3c-4.3.2-8.4.6-12 1.1 2.2-2 4.4-3.7 6.3-5.1 1.5-1.1 2.7-2 3.6-2.6.9-.6 1.4-1 1.4-1l1.1 2c-.2 1.8-.3 3.7-.4 5.6zM26 23.9V25l-3.6.4 1 1.3c-2.8 1.4-6.1 3.2-9.3 5.2-.2.2-.5.3-.7.5-.1-1-.1-2.1-.1-3.1 0-1.4.1-2.8.2-4.2 3.5-.5 7.7-.9 12.5-1.2zM30.2 23.8c-.2.1-.7.3-1.3.5-.3.1-.7.3-1.1.5h-.1v-1h2.5zM29.4 22.2h-1.7c0-1 .1-2 .2-3l1.5 3z"/><g><path class="st0" d="M12.1 23.8c-3.4.6-6.2 1.4-8.1 2.3.2-1.5.4-3 .8-4.4 2.1-3.5 5.5-6.5 9.9-8.7-1.3 3.3-2.2 6.9-2.6 10.8zM15.7 10.8C12 12.5 8.9 14.6 6.5 17c3-6.5 8.4-11.7 15-14.6-2.3 2.3-4.3 5.1-5.8 8.4zM17.9 9.9c2.1-4 4.9-7.1 8-9 1.3-.3 2.7-.6 4-.7-.9 1.8-1.6 4.3-2.2 7.4-3.5.4-6.8 1.2-9.8 2.3zM11.9 25.5c-3.9.7-6.6 1.6-8.1 2.5v2.8c.5.3 1.2.6 2.1 1 1.5.6 3.5 1.1 6 1.6-.1-1.3-.2-2.6-.2-3.9 0-1.4.1-2.7.2-4zm.2 9.4c-.6-.1-1.2-.2-1.7-.3-2.1-.5-4-1-5.5-1.6-.3-.1-.6-.3-.9-.4 0 .4.1.9.1 1.4.2 1 .4 2 .7 3 .2.6.3 1.2.6 1.8l.4-.4c1.1 1.5 2.4 2.8 3.9 4.1 1.1-.5 2.3-1 3.5-1.6-.5-1.9-.9-3.9-1.1-6zM16.2 49c-1.7.1-3.3.1-4.9 0 2.8 3.1 6.3 5.6 10.2 7.3-2-2-3.8-4.4-5.3-7.3zm-9.7-7.3c.2.6.5 1.1.8 1.6.2-.1.5-.1.7-.2-.5-.4-1-.9-1.5-1.4zm21.2 9.5c-3.4-.4-6.7-1.2-9.7-2.3-.1 0-.1 0-.2-.1v.1c2.1 3.9 4.9 7.1 8 9 1.3.3 2.6.6 4 .7-.7-1.8-1.5-4.4-2.1-7.4zM49.5 12c-3.2-1.4-6.8-2.3-10.6-2.8.7 3.9 1.1 8.4 1.3 13.1 1.6.1 3.3.2 4.8.3l7.3-.9c-.5-3.5-1.5-6.8-2.8-9.7zM37.3 45.5c-.2.1-.4.1-.6.2-.7.2-1.6.4-2.5.6-1.6.4-3.4.8-5.4 1.1.1.8.2 1.5.4 2.3 1.3.1 2.7.2 4.1.2 1.4 0 2.8-.1 4.1-.2.2-1.1.4-2.3.5-3.5 0-.3.1-.6.1-.9-.3.1-.5.2-.7.2zm1.8 2.6c-.1.5-.2 1-.2 1.5.4-.1.8-.1 1.2-.2l-1-1.3zm7.8-12.2l-6 13.3c3.1-.5 6-1.4 8.6-2.5 1.5-3.4 2.6-7.3 3.2-11.5-1.9.3-3.8.5-5.8.7zm5.9-10.7c-.3-.1-.7-.1-1-.2l-4.2 9.3c1.9-.2 3.6-.4 5.2-.7.1-1.4.2-2.8.2-4.2s-.1-2.9-.2-4.2zM27.1 47.7c-1.6.3-3.4.6-5.1.8 1.7.5 3.5.8 5.4 1l-.3-1.8zM13.7 35.2c.2 1.7.5 3.3.9 4.9.9-.5 1.8-1 2.7-1.6 1.3-.8 2.5-1.6 3.7-2.4-2.6-.2-5.1-.5-7.3-.9zm19.4-11.4h-3c-.9 0-1.7 0-2.5.1v1h.1l8.1-1c-.8-.1-1.7-.1-2.7-.1zM37.2 9c-1.3-.1-2.7-.2-4.1-.2-1.4 0-2.7.1-4.1.2-.5 2.9-.9 6.3-1.2 10.3-.1 1-.1 1.9-.2 3H33c1.8 0 3.7 0 5.5.1-.1-5.3-.6-9.8-1.3-13.4zm-20.4 3c-1.5 3.4-2.6 7.3-3.2 11.5.1 0 .3 0 .5-.1 3.6-.5 7.7-.9 12-1.1.1-1.9.2-3.8.4-5.6.2-2.7.5-5.2.9-7.5-3.8.5-7.4 1.5-10.6 2.8zM26 23.9c-4.9.2-9.1.7-12.5 1.3-.1 1.4-.2 2.8-.2 4.2 0 1 0 2.1.1 3.1 0 .4.1.7.1 1.1 2.7.5 5.9.8 9.5 1.1 1.1-.8 2.1-1.5 3-2.3v-2.1l-2.6-3.5-1-1.3L26 25v-1.1zM36.9 51.3c-.7 3.5-1.5 6-2.4 7.4h-2.8c-.8-1.4-1.7-3.9-2.4-7.4 1.2.1 2.5.1 3.8.1 1.3.1 2.6 0 3.8-.1zM29.4 7.4c.7-3.5 1.5-6 2.4-7.4h2.8c.8 1.4 1.7 3.9 2.4 7.4-1.2-.1-2.5-.1-3.8-.1-1.3 0-2.6 0-3.8.1zM48.4 48.8c-2.1 4-4.9 7.1-8.1 9-1.3.3-2.6.6-4 .7.9-1.8 1.6-4.4 2.2-7.4 3.6-.3 6.9-1.1 9.9-2.3zM38.6 7.6C38 4.6 37.3 2 36.4.2c1.4.1 2.7.4 4 .7 3.2 1.9 5.9 5 8.1 9-3.1-1.1-6.4-1.9-9.9-2.3zM50.6 47.9c3.6-1.6 6.7-3.7 9.2-6.2-3 6.5-8.4 11.8-15 14.6 2.3-2.2 4.3-5 5.8-8.4zM50.6 10.8c-1.6-3.3-3.5-6.2-5.8-8.4 6.6 2.9 12 8.1 15 14.6-2.4-2.5-5.5-4.5-9.2-6.2zM54.3 34.9c3.3-.6 6.2-1.4 8.1-2.4-.2 1.5-.4 3-.8 4.5-2.1 3.5-5.5 6.5-9.9 8.7 1.2-3.2 2.1-6.9 2.6-10.8zM61.5 21.7c.4 1.5.7 2.9.8 4.5-1.9-.9-4.8-1.7-8.1-2.3-.5-3.9-1.4-7.5-2.7-10.8 4.5 2.1 7.9 5.1 10 8.6zM62.5 29.4v1.4c-1.5.9-4.2 1.8-8.1 2.5.1-1.3.2-2.6.2-3.9s-.1-2.6-.2-3.9c3.9.7 6.6 1.6 8.1 2.5v1.4z"/></g><g class="st1"><path class="st0" d="M4.8 37c.2.6.3 1.2.6 1.8l.4-.4c-.4-.4-.7-.9-1-1.4zm.5 1.9c-.3.3-.5.5-.7.8.6.7 1.2 1.4 1.9 2.1-.4-1-.8-2-1.2-2.9z"/></g><g><path class="st0" d="M12.1 23.8c-3.4.6-6.2 1.4-8.1 2.3.2-1.5.4-3 .8-4.4 2.1-3.5 5.5-6.5 9.9-8.7-1.3 3.3-2.2 6.9-2.6 10.8zM15.7 10.8C12 12.5 8.9 14.6 6.5 17c3-6.5 8.4-11.7 15-14.6-2.3 2.3-4.3 5.1-5.8 8.4zM17.9 9.9c2.1-4 4.9-7.1 8-9 1.3-.3 2.7-.6 4-.7-.9 1.8-1.6 4.3-2.2 7.4-3.5.4-6.8 1.2-9.8 2.3zM11.9 25.5c-3.9.7-6.6 1.6-8.1 2.5v2.8c.5.3 1.2.6 2.1 1 1.5.6 3.5 1.1 6 1.6-.1-1.3-.2-2.6-.2-3.9 0-1.4.1-2.7.2-4zm.2 9.4c-.6-.1-1.2-.2-1.7-.3-2.1-.5-4-1-5.5-1.6-.3-.1-.6-.3-.9-.4 0 .4.1.9.1 1.4.2 1 .4 2 .7 3 .2.6.3 1.2.6 1.8l.4-.4c1.1 1.5 2.4 2.8 3.9 4.1 1.1-.5 2.3-1 3.5-1.6-.5-1.9-.9-3.9-1.1-6zM16.2 49c-1.7.1-3.3.1-4.9 0 2.8 3.1 6.3 5.6 10.2 7.3-2-2-3.8-4.4-5.3-7.3zm-9.7-7.3c.2.6.5 1.1.8 1.6.2-.1.5-.1.7-.2-.5-.4-1-.9-1.5-1.4zm21.2 9.5c-3.4-.4-6.7-1.2-9.7-2.3-.1 0-.1 0-.2-.1v.1c2.1 3.9 4.9 7.1 8 9 1.3.3 2.6.6 4 .7-.7-1.8-1.5-4.4-2.1-7.4zM49.5 12c-3.2-1.4-6.8-2.3-10.6-2.8.7 3.9 1.1 8.4 1.3 13.1 1.6.1 3.3.2 4.8.3l7.3-.9c-.5-3.5-1.5-6.8-2.8-9.7zM37.3 45.5c-.2.1-.4.1-.6.2-.7.2-1.6.4-2.5.6-1.6.4-3.4.8-5.4 1.1.1.8.2 1.5.4 2.3 1.3.1 2.7.2 4.1.2 1.4 0 2.8-.1 4.1-.2.2-1.1.4-2.3.5-3.5 0-.3.1-.6.1-.9-.3.1-.5.2-.7.2zm1.8 2.6c-.1.5-.2 1-.2 1.5.4-.1.8-.1 1.2-.2l-1-1.3zm7.8-12.2l-6 13.3c3.1-.5 6-1.4 8.6-2.5 1.5-3.4 2.6-7.3 3.2-11.5-1.9.3-3.8.5-5.8.7zm5.9-10.7c-.3-.1-.7-.1-1-.2l-4.2 9.3c1.9-.2 3.6-.4 5.2-.7.1-1.4.2-2.8.2-4.2s-.1-2.9-.2-4.2zM27.1 47.7c-1.6.3-3.4.6-5.1.8 1.7.5 3.5.8 5.4 1l-.3-1.8zM13.7 35.2c.2 1.7.5 3.3.9 4.9.9-.5 1.8-1 2.7-1.6 1.3-.8 2.5-1.6 3.7-2.4-2.6-.2-5.1-.5-7.3-.9zm19.4-11.4h-3c-.9 0-1.7 0-2.5.1v1h.1l8.1-1c-.8-.1-1.7-.1-2.7-.1zM37.2 9c-1.3-.1-2.7-.2-4.1-.2-1.4 0-2.7.1-4.1.2-.5 2.9-.9 6.3-1.2 10.3-.1 1-.1 1.9-.2 3H33c1.8 0 3.7 0 5.5.1-.1-5.3-.6-9.8-1.3-13.4zm-20.4 3c-1.5 3.4-2.6 7.3-3.2 11.5.1 0 .3 0 .5-.1 3.6-.5 7.7-.9 12-1.1.1-1.9.2-3.8.4-5.6.2-2.7.5-5.2.9-7.5-3.8.5-7.4 1.5-10.6 2.8zM26 30.3l-2.6-3.5-1-1.3L26 25v-1.1c-4.9.2-9.1.7-12.5 1.3-.1 1.4-.2 2.8-.2 4.2 0 1 0 2.1.1 3.1 0 .4.1.7.1 1.1 2.7.5 5.9.8 9.5 1.1 1.1-.8 2.1-1.5 3-2.3.3-.3.7-.5 1-.8l-1-1.3zM36.9 51.3c-.7 3.5-1.5 6-2.4 7.4h-2.8c-.8-1.4-1.7-3.9-2.4-7.4 1.2.1 2.5.1 3.8.1 1.3.1 2.6 0 3.8-.1zM29.4 7.4c.7-3.5 1.5-6 2.4-7.4h2.8c.8 1.4 1.7 3.9 2.4 7.4-1.2-.1-2.5-.1-3.8-.1-1.3 0-2.6 0-3.8.1zM48.4 48.8c-2.1 4-4.9 7.1-8.1 9-1.3.3-2.6.6-4 .7.9-1.8 1.6-4.4 2.2-7.4 3.6-.3 6.9-1.1 9.9-2.3zM38.6 7.6C38 4.6 37.3 2 36.4.2c1.4.1 2.7.4 4 .7 3.2 1.9 5.9 5 8.1 9-3.1-1.1-6.4-1.9-9.9-2.3zM50.6 47.9c3.6-1.6 6.7-3.7 9.2-6.2-3 6.5-8.4 11.8-15 14.6 2.3-2.2 4.3-5 5.8-8.4zM50.6 10.8c-1.6-3.3-3.5-6.2-5.8-8.4 6.6 2.9 12 8.1 15 14.6-2.4-2.5-5.5-4.5-9.2-6.2zM54.3 34.9c3.3-.6 6.2-1.4 8.1-2.4-.2 1.5-.4 3-.8 4.5-2.1 3.5-5.5 6.5-9.9 8.7 1.2-3.2 2.1-6.9 2.6-10.8zM61.5 21.7c.4 1.5.7 2.9.8 4.5-1.9-.9-4.8-1.7-8.1-2.3-.5-3.9-1.4-7.5-2.7-10.8 4.5 2.1 7.9 5.1 10 8.6zM62.5 29.4v1.4c-1.5.9-4.2 1.8-8.1 2.5.1-1.3.2-2.6.2-3.9s-.1-2.6-.2-3.9c3.9.7 6.6 1.6 8.1 2.5v1.4z"/></g><g><path class="st0" d="M11.3 49c-1.7-.1-3.2-.2-4.7-.5-1-.2-1.9-.5-2.7-.8-.8-.3-1.5-.7-2.1-1.2-.5-.5-.9-.9-1.1-1.2-.2-.4-.7-1-.8-2.3v-.4-.2c0-.4.1-.7.1-.9.1-.4.2-.6.2-.6s.8 2.3 2.3 2.6c.1.1.5.3.8.4.3.1.8.1 1.3 0 .5 0 1.2-.2 1.9-.3.2-.1.4-.1.6-.2 1.3 2 2.7 3.9 4.2 5.6zM17.9 48.8c.1 0 .1 0 .2.1-.1 0-.1 0-.2-.1 0 .1 0 0 0 0z"/></g><g><path class="st0" d="M37.3 45.5l.5.7c0-.3.1-.6.1-.9-.2.1-.4.2-.6.2zm-9.7-20.7h.1-.1z"/></g><g class="st2"><path class="st0" d="M37.9 45.3c0 .3-.1.6-.1.9l-.5-.7c.2 0 .4-.1.6-.2z"/></g><g><path class="st0" d="M86.4 48.5v-9.8h-2.6v9.8h-5.2v-9.8H76v11.8h9.5v3.7H88v-5.8h-1.6zM100.3 45c0-4.1-2.1-6.6-5.6-6.6-3.3 0-5.7 2.7-5.7 6.4 0 3.6 2.2 6.2 5.8 6.2 2.7 0 4.8-1.5 5.4-4.1h-2.5c-.6 1.5-1.4 2.1-2.8 2.1-2 0-3.2-1.3-3.3-3.7h8.7V45zm-8.7-1.4c.3-2.1 1.3-3.2 3.1-3.2s2.9 1.2 3 3.2h-6.1zM110.1 38.8v4.6h-5.2v-4.6h-2.6v11.8h2.6v-5.1h5.2v5.1h2.6V38.8h-2.6zM114.2 38.8v2.1h3.9v9.8h2.6v-9.8h3.9v-2.1h-10.4zM132.4 38.4c-1.5 0-3 .6-3.8 1.9v-1.6h-2.4V55h2.6v-6c.9 1.3 2.2 1.9 3.8 1.9 3.2 0 5.2-2.4 5.2-6.2 0-3.8-2.1-6.3-5.4-6.3zm-.5 10.4c-2.1 0-3.3-1.5-3.3-4.1 0-2.6 1.2-4.1 3.3-4.1 2 0 3.3 1.6 3.3 4.2-.1 2.4-1.3 4-3.3 4zM146.4 38.8v11.8h2.6v-9.8h5.2v9.8h2.6V38.8h-10.4zM165.9 38.4c-1.5 0-3 .6-3.8 1.9v-1.6h-2.4V55h2.6v-6c1 1.3 2.3 1.9 3.8 1.9 3.2 0 5.3-2.4 5.3-6.2-.1-3.8-2.2-6.3-5.5-6.3zm-.5 10.4c-2.1 0-3.3-1.5-3.3-4.1 0-2.6 1.2-4.1 3.3-4.1 2 0 3.3 1.6 3.3 4.2-.1 2.4-1.3 4-3.3 4zM179 38.4c-3.6 0-6 2.4-6 6.2 0 3.8 2.3 6.3 6 6.3 3.6 0 5.9-2.4 5.9-6.3 0-3.7-2.3-6.2-5.9-6.2zm0 10.5c-2.1 0-3.4-1.6-3.4-4.2s1.3-4.2 3.4-4.2c2 0 3.3 1.6 3.3 4.1 0 2.7-1.3 4.3-3.3 4.3zM199.2 38.4c-1 0-2.2.6-2.6 1.2h-.1v-5.4h-2.6v5.4h-.1c-.5-.6-1.6-1.2-2.6-1.2-2.8 0-4.6 2.3-4.6 6.1 0 3.3 1.3 6.4 4.8 6.4.9 0 2-.5 2.5-1.1h.1V55h2.6v-5.2h.1c.5.6 1.6 1.1 2.5 1.1 3.5 0 4.8-3.1 4.8-6.4-.2-3.7-2-6.1-4.8-6.1zm-5.3 9.2c-.2.7-.9 1.3-2 1.3-2 0-2.7-2.1-2.7-4.3 0-2.6.8-4.1 2.6-4.1.8 0 1.8.4 2.1 1.4v5.7zm4.6 1.3c-1.1 0-1.9-.6-2-1.3v-5.8c.3-1.1 1.3-1.4 2.1-1.4 1.7 0 2.6 1.5 2.6 4.1 0 2.3-.6 4.4-2.7 4.4zM216.7 45c0-4.1-2.1-6.6-5.6-6.6-3.3 0-5.7 2.7-5.7 6.4 0 3.6 2.2 6.2 5.8 6.2 2.7 0 4.8-1.5 5.4-4.1h-2.5c-.5 1.5-1.3 2.1-2.8 2.1-2 0-3.2-1.3-3.3-3.7h8.7V45zm-8.6-1.4c.3-2.1 1.3-3.2 3.1-3.2 1.7 0 2.9 1.2 3 3.2h-6.1zM226.9 46.1c-.3 1.7-1.3 2.7-2.9 2.7-2 0-3.2-1.5-3.2-4.2s1.2-4.2 3.2-4.2c1.4 0 2.4.8 2.7 2.3h2.6c-.3-2.7-2.2-4.3-5.3-4.3-3.6 0-5.9 2.5-5.9 6.4 0 3.6 2.2 6.1 5.8 6.1 3 0 5.1-1.9 5.4-4.8h-2.4zM239.6 46.1c-.3 1.7-1.3 2.7-2.9 2.7-2 0-3.2-1.5-3.2-4.2s1.2-4.2 3.3-4.2c1.4 0 2.3.8 2.6 2.3h2.6c-.3-2.7-2.2-4.3-5.3-4.3-3.6 0-5.9 2.5-5.9 6.4 0 3.6 2.2 6.1 5.8 6.1 3 0 5.1-1.9 5.4-4.8h-2.4zM251.3 38.8l-4.4 8.6h-.1v-8.6h-2.6v11.8h3.3l4.4-8.6h.1v8.6h2.6V38.8h-3.3zM262.8 38.4c-3.6 0-6 2.4-6 6.2 0 3.8 2.3 6.3 6 6.3 3.6 0 5.9-2.4 5.9-6.3 0-3.7-2.3-6.2-5.9-6.2zm0 10.5c-2.1 0-3.4-1.6-3.4-4.2s1.3-4.2 3.4-4.2c2 0 3.3 1.6 3.3 4.1 0 2.7-1.3 4.3-3.3 4.3zM278.7 38.8v4.6h-5.2v-4.6h-2.6v11.8h2.6v-5.1h5.2v5.1h2.6V38.8h-2.6zM294.6 48.9c-.5 0-.6-.2-.6-.9v-6c0-2.5-2.1-3.6-4.9-3.6-2.9 0-4.9 1.1-5.2 4h2.5c.2-1.5 1-2.1 2.6-2.1s2.4.6 2.4 1.8c0 .5-.1.7-.2.9-.3.4-.8.5-2.6.7-2.3.3-5.3.6-5.3 3.7 0 2.2 1.5 3.5 4 3.5 1.5 0 3.1-.4 4.1-1.4.2 1 .9 1.4 1.9 1.4.5 0 .9-.1 1.7-.3v-1.8c-.1.1-.2.1-.4.1zm-3.2-2.8c0 .7 0 1.5-.5 2-.6.6-1.6.9-2.7.9-1.3 0-2.1-.6-2.1-1.7 0-1.6 1.4-1.8 2.6-2 .9-.1 1.9-.2 2.7-.7v1.5zM298.5 38.8l-.2 7c-.1 2.4-.9 2.9-1.6 2.9-.2 0-.8 0-.9-.1v2c.3.2 1 .3 1.6.3 2.1 0 3.5-1.7 3.6-4.9l.2-5.2h3.6v9.8h2.6V38.8h-8.9zM316.1 43.1h-3.6v-4.3h-2.6v11.8h6.2c2.6 0 4-1.4 4-3.8 0-2.3-1.4-3.7-4-3.7zm-.3 5.5h-3.3v-3.5h3.3c1.1 0 1.7.7 1.7 1.7s-.4 1.8-1.7 1.8zM330 38.8v4.6h-5.2v-4.6h-2.6v11.8h2.6v-5.1h5.2v5.1h2.6V38.8H330zM346.6 38.8v11.8h2.6V38.8h-2.6zm-5.6 4.3h-3.2v-4.3h-2.6v11.8h5.8c2.6 0 4-1.4 4-3.8 0-2.3-1.4-3.7-4-3.7zm-.3 5.5h-2.9v-3.5h2.8c1.1 0 1.7.7 1.7 1.7.1 1-.4 1.8-1.6 1.8zM358.2 44.3l4-5.5h-3l-2.6 3.6-2.5-3.6h-3.2l4.1 5.6-4.4 6.2h3.1l2.9-4.4 3 4.4h3.1l-4.5-6.3zM370.5 38.8v11.8h2.6v-9.8h5.2v9.8h2.6V38.8h-10.4zM394.4 45c0-4.1-2.1-6.6-5.6-6.6-3.3 0-5.7 2.7-5.7 6.4 0 3.6 2.2 6.2 5.8 6.2 2.7 0 4.8-1.5 5.4-4.1h-2.5c-.5 1.5-1.4 2.1-2.8 2.1-2 0-3.2-1.3-3.3-3.7h8.7V45zm-8.7-1.4c.3-2.1 1.3-3.2 3.1-3.2 1.7 0 2.9 1.2 3 3.2h-6.1zM402.7 38.4c-1.5 0-3 .6-3.8 1.9v-1.6h-2.4V55h2.6v-6c.9 1.3 2.2 1.9 3.8 1.9 3.2 0 5.2-2.4 5.2-6.2 0-3.8-2.1-6.3-5.4-6.3zm-.4 10.4c-2.1 0-3.3-1.5-3.3-4.1 0-2.6 1.2-4.1 3.3-4.1 2 0 3.3 1.6 3.3 4.2-.1 2.4-1.4 4-3.3 4zM421.1 45c0-4.1-2.2-6.6-5.6-6.6-3.3 0-5.7 2.7-5.7 6.4 0 3.6 2.2 6.2 5.8 6.2 2.7 0 4.8-1.5 5.4-4.1h-2.5c-.5 1.5-1.4 2.1-2.8 2.1-2 0-3.2-1.3-3.3-3.7h8.7V45zm-8.6-1.4c.2-2.1 1.3-3.2 3-3.2s2.9 1.2 3 3.2h-6zM431.5 44.2c1.1-.6 1.7-1.2 1.7-2.5 0-1.8-1.3-2.9-3.5-2.9h-6.5v11.8h6.2c2.8 0 4.3-1.2 4.3-3.4 0-1.5-.8-2.6-2.2-3zm-5.8-3.5h3.3c1.1 0 1.6.4 1.6 1.3s-.5 1.4-1.5 1.4h-3.3v-2.7zm3.6 7.9h-3.6v-3.3h3.6c1.2 0 1.7.6 1.7 1.6.1 1.2-.5 1.7-1.7 1.7zM441.3 38.4c-3.7 0-6 2.4-6 6.2 0 3.8 2.4 6.3 6 6.3s5.9-2.4 5.9-6.3c0-3.7-2.2-6.2-5.9-6.2zm0 10.5c-2.1 0-3.4-1.6-3.4-4.2s1.3-4.2 3.3-4.2c2.1 0 3.3 1.6 3.3 4.1.1 2.7-1.1 4.3-3.2 4.3zM459.7 48.5v-9.8h-8.9V40c0 3.9-.5 6.4-1.4 8.4h-1.5v5.8h2.5v-3.7h8.4v3.7h2.5v-5.8h-1.6zm-2.6 0h-5c.5-1.2 1.2-4.2 1.2-6.9v-.8h3.8v7.7zM468.4 38.4c-3.6 0-6 2.4-6 6.2 0 3.8 2.3 6.3 6 6.3 3.6 0 5.9-2.4 5.9-6.3 0-3.7-2.3-6.2-5.9-6.2zm-.1 10.5c-2.1 0-3.4-1.6-3.4-4.2s1.3-4.2 3.4-4.2c2 0 3.3 1.6 3.3 4.1 0 2.7-1.2 4.3-3.3 4.3zM484.8 44.2c1.1-.6 1.7-1.2 1.7-2.5 0-1.8-1.3-2.9-3.5-2.9h-6.5v11.8h6.2c2.8 0 4.4-1.2 4.4-3.4-.1-1.5-.8-2.6-2.3-3zm-5.7-3.5h3.3c1.1 0 1.6.4 1.6 1.3s-.6 1.4-1.5 1.4h-3.3v-2.7zm3.6 7.9h-3.6v-3.3h3.6c1.2 0 1.8.6 1.8 1.6-.1 1.2-.7 1.7-1.8 1.7z"/><g><path class="st0" d="M88 3.8h-5.8L74 25.6h5.8l1.4-4h7.5l1.4 4H96L88 3.8zm-5.3 13.7l2.5-7.6 2.4 7.6h-4.9zM93.7 3.8v4.8h6.5v16.9h5.8V8.6h6.5V3.8H93.7zM117.7 3.8l-.4 12.5c-.1 4.5-1.2 5-2.5 5-.6 0-1.3-.1-1.7-.3v4.6c.6.2 2.1.4 3 .4 3.7 0 6.5-2.8 6.7-8.9l.3-8.5h4.8v16.9h5.7V3.8h-15.9zM149.3 3.8h-5.8l-8.2 21.8h5.8l1.4-4h7.5l1.4 4h5.9l-8-21.8zm-5.4 13.7l2.5-7.6 2.4 7.6h-4.9zM172.2 3.8v7.8h-7.4V3.8h-5.7v21.8h5.7v-9h7.4v9h5.7V3.8h-5.7zM180.4 3.8v4.8h6.5v16.9h5.8V8.6h6.5V3.8h-18.8z"/></g></g></svg>