<svg id="Слой_1" xmlns="http://www.w3.org/2000/svg" viewBox="0 0 288.9 64.3"><style>.st0{fill:#2B4C11;} .st1{fill:#0D79BF;} .st2{opacity:0.7;} .st3{fill:#FFFFFF;} .st4{fill:none;} .st5{fill:#61A235;} .st6{opacity:0.1;} .st7{fill:#073D60;} .st8{fill:#2C2D2A;}</style><path class="st0" d="M.5 47.5l-.3-.6c-.1-.3-.2-.6-.2-.9-.1-1 .1-2.1.5-3.1.3-.8.7-1.6 1.1-2.4 1.9-3.3 5.1-7.1 8.6-10.5s7.3-6.6 10.2-8.8c1.5-1.1 2.7-2 3.6-2.6s1.4-1 1.4-1l4.8 9s-.5.2-1.4.6-2.2.9-3.7 1.7c-3.1 1.4-7.1 3.5-10.9 6-3.8 2.4-7.4 5.3-9.6 7.7-.7.8-1.4 1.7-1.8 2.6-.1.2-.2.5-.2.7 0 .5.6 1.9.1.5-.1 0-2.2 1.1-2.2 1.1z"/><circle class="st1" cx="33.1" cy="32.2" r="29.4"/><path class="st2 st3" d="M65.3 32c-.1-7.7-5.9-14.4-14.7-18.3C46.8 5.5 40.5.1 33.3 0h-.4c-7.1.1-13.4 5.5-17.3 13.7C6.9 17.6 1.1 24.3 1 32v.4c.1 7.7 5.9 14.4 14.6 18.3 3.8 8.1 10.1 13.5 17.3 13.6h.4c7.2 0 13.5-5.4 17.3-13.6 8.7-3.9 14.6-10.6 14.7-18.3v-.2-.2zm-1.9-2.4c-1.9-1.2-5.2-2.2-9.2-3-.5-3.9-1.4-7.5-2.7-10.8C58 19.1 62.4 24 63.4 29.6zm-23.2-2.8c4.9.2 9.1.7 12.5 1.3.1 1.4.2 2.8.2 4.2 0 1.4-.1 2.8-.2 4.2-3.5.6-7.7 1-12.5 1.3.1-1.8.1-3.6.1-5.5s0-3.7-.1-5.5zm12.4-.4c-3.7-.6-8-1-12.4-1.2-.2-4.7-.7-9.2-1.3-13.1 3.8.5 7.4 1.5 10.6 2.8 1.5 3.4 2.6 7.3 3.1 11.5zm-4.2-13.6c-3-1.1-6.3-1.9-9.9-2.4-.7-3.7-1.6-6.7-2.8-8.5 5.1 1 9.6 5 12.7 10.9zm-15.3 25c-1.9 0-3.8 0-5.5-.1-.1-1.7-.1-3.6-.1-5.5s0-3.8.1-5.5c1.8-.1 3.6-.1 5.5-.1s3.8 0 5.5.1c.1 1.8.1 3.6.1 5.5s0 3.8-.1 5.5c-1.7.1-3.6.1-5.5.1zm5.5 1.5c-.2 5.2-.7 9.7-1.4 13.2-1.3.2-2.7.2-4.1.2-1.4 0-2.7-.1-4.1-.2-.6-3.6-1.1-8-1.4-13.2 1.8.1 3.6.1 5.4.1 1.9 0 3.8 0 5.6-.1zM27.7 25.1c.2-5.2.7-9.7 1.4-13.2 1.3-.1 2.7-.2 4.1-.2 1.4 0 2.7.1 4.1.2.6 3.6 1.1 8 1.4 13.2-1.8-.1-3.6-.1-5.5-.1s-3.7 0-5.5.1zm9.2-14.9c-1.2-.1-2.5-.2-3.8-.2-1.3 0-2.5 0-3.8.2 1.2-5.5 2.6-8.6 3.8-8.6 1.2 0 2.7 3.1 3.8 8.6zm-6.4-8.3c-1.1 1.8-2.1 4.8-2.8 8.5-3.5.4-6.8 1.2-9.9 2.4C21 6.9 25.4 2.9 30.5 1.9zm-13.7 13c3.2-1.4 6.8-2.3 10.6-2.8-.7 3.9-1.1 8.4-1.3 13.1-4.5.2-8.7.6-12.4 1.2.5-4.2 1.6-8.1 3.1-11.5zM26 37.7c-4.9-.2-9.1-.7-12.5-1.3-.1-1.4-.2-2.8-.2-4.2 0-1.4.1-2.8.2-4.2 3.5-.6 7.7-1 12.5-1.3-.1 1.8-.1 3.6-.1 5.4 0 1.9.1 3.7.1 5.6zM14.7 15.8c-1.3 3.3-2.2 6.9-2.7 10.8-4.1.7-7.3 1.7-9.2 3 1-5.6 5.5-10.5 11.9-13.8zm-2.8 12.5c-.1 1.3-.2 2.6-.2 3.9s.1 2.6.2 3.9c-6-1.1-9.3-2.7-9.3-3.9-.1-1.2 3.3-2.8 9.3-3.9zm-9.1 6.5C4.7 36 8 37 12 37.8c.5 3.9 1.4 7.5 2.7 10.8-6.4-3.3-10.9-8.2-11.9-13.8zM13.7 38c3.7.6 8 1 12.4 1.2.2 4.7.7 9.2 1.3 13.1-3.8-.5-7.4-1.5-10.6-2.8-1.5-3.4-2.6-7.3-3.1-11.5zm4.1 13.6c3 1.1 6.4 1.9 9.9 2.4.7 3.7 1.7 6.7 2.8 8.5-5.1-1-9.5-5-12.7-10.9zm15.3 11.2c-1.2 0-2.6-3.1-3.8-8.6 1.2.1 2.5.2 3.8.2 1.3 0 2.5 0 3.8-.2-1.1 5.5-2.6 8.6-3.8 8.6zm2.6-.3c1.2-1.8 2.1-4.8 2.8-8.5 3.5-.4 6.8-1.2 9.9-2.4-3.1 5.9-7.6 9.9-12.7 10.9zm13.7-13c-3.2 1.4-6.8 2.3-10.6 2.8.7-3.9 1.1-8.4 1.3-13.1 4.5-.2 8.7-.6 12.4-1.2-.4 4.2-1.5 8.1-3.1 11.5zm2.1-.9c1.3-3.3 2.2-6.9 2.7-10.8 4.1-.7 7.3-1.7 9.2-3-1 5.6-5.4 10.5-11.9 13.8zm2.9-12.5c.1-1.3.2-2.6.2-3.9 0-1.3-.1-2.6-.2-3.9 6 1.1 9.3 2.7 9.3 3.9 0 1.3-3.3 2.8-9.3 3.9z"/><circle class="st4" cx="33.1" cy="32.2" r="29.4"/><path class="st5" d="M40.1 47.6s-.6.1-1.6.4c-.5.1-1.2.3-1.9.5s-1.6.4-2.5.6c-3.6.9-8.5 1.8-13.5 2.4-5 .5-10 .6-14-.2-1-.2-1.9-.5-2.7-.8s-1.5-.7-2.1-1.2c-.5-.5-.9-.9-1.1-1.2-.2-.4-.7-1-.7-2.3 0-1.1.3-2.1.3-2.1s.8 2.3 2.4 2.6c.1.1.5.3.8.4h1.2s1.2-.2 1.9-.3c2.9-.8 6.9-2.7 10.6-5s7.3-5 9.8-7c.6-.5 1.2-1 1.7-1.4.5-.4.9-.8 1.3-1.1.8-.7 1.2-1 1.2-1l8.9 16.7z"/><path class="st5" d="M53.3 24.4l-30.9 3.9 18.1 24.5 12.8-28.4-30.9 3.9 18.1 24.5z"/><path class="st6 st7" d="M37.2 48.4l3.3 4.4 12.8-28.4z"/><g><path class="st8" d="M75.5 53.1v3.2h-1.4v-1.9H69V48h1.4v5.3h3V48h1.4v5.3h.7v-.2zM79.2 54.3c-1.9 0-3.2-1.4-3.2-3.3s1.2-3.3 3-3.3c1.9 0 3 1.4 3 3.5v.2h-4.7c0 1.2.7 1.9 1.8 1.9.7 0 1.2-.4 1.6-1.2H82c-.3 1.5-1.4 2.2-2.8 2.2zm0-5.6c-.9 0-1.4.5-1.6 1.8h3.2c-.2-1.1-.7-1.8-1.6-1.8zM83.2 54.1v-6.3h1.4v2.5h2.8v-2.5h1.4v6.3h-1.4v-2.8h-2.8v2.8h-1.4zM93.1 49v5.3h-1.4V49h-2.1v-1h5.6v1h-2.1zM97.3 48.7c.5-.7 1.2-1.1 2.1-1.1 1.8 0 2.8 1.4 2.8 3.3s-1.1 3.3-2.8 3.3c-.9 0-1.6-.4-2.1-1.1v3.2h-1.4v-8.6h1.2v.9h.2zm0 2.2c0 1.4.7 2.3 1.8 2.3s1.8-.9 1.8-2.1c0-1.4-.7-2.3-1.8-2.3-1.3 0-1.8.7-1.8 2.1zM106.8 54.1v-6.3h5.6v6.3H111v-5.3h-2.8v5.3h-1.4zM115 48.7c.5-.7 1.2-1.1 2.1-1.1 1.8 0 2.8 1.4 2.8 3.3s-1.1 3.3-2.8 3.3c-.9 0-1.6-.4-2.1-1.1v3.2h-1.2v-8.6h1.2v1zm.2 2.2c0 1.4.7 2.3 1.8 2.3s1.8-.9 1.8-2.1c0-1.4-.7-2.3-1.8-2.3-1.3 0-1.8.7-1.8 2.1zM127.3 50.9c0 2.1-1.2 3.3-3.2 3.3-1.9 0-3.2-1.2-3.2-3.3s1.2-3.3 3.2-3.3 3.2 1.4 3.2 3.3zm-4.9 0c0 1.4.7 2.3 1.8 2.3s1.8-.9 1.8-2.3-.7-2.3-1.8-2.3c-1.1.2-1.8.9-1.8 2.3zM134.9 54.3c-.5 0-1.1-.4-1.2-.5v2.8h-1.4v-2.8c-.2.4-.9.5-1.2.5-1.9 0-2.6-1.6-2.6-3.5s1.1-3.2 2.5-3.2c.5 0 1.2.4 1.4.7v-2.8h1.4v2.8c.2-.4.9-.7 1.4-.7 1.6 0 2.5 1.2 2.5 3.2-.4 1.9-.9 3.5-2.8 3.5zm-2.8-4.8c-.2-.5-.7-.7-1.1-.7-.9 0-1.4.9-1.4 2.1 0 1.2.4 2.3 1.4 2.3.5 0 1.1-.4 1.1-.7v-3zm2.6-.8c-.4 0-1.1.2-1.1.7v3c0 .4.5.7 1.1.7 1.1 0 1.4-1.1 1.4-2.3 0-1.3-.5-2.1-1.4-2.1zM141.4 54.3c-1.9 0-3.2-1.4-3.2-3.3s1.2-3.3 3-3.3c1.9 0 3 1.4 3 3.5v.2h-4.7c0 1.2.7 1.9 1.8 1.9.7 0 1.2-.4 1.6-1.2h1.4c-.3 1.5-1.5 2.2-2.9 2.2zm0-5.6c-.9 0-1.4.5-1.6 1.8h3.2c-.2-1.1-.8-1.8-1.6-1.8zM148.2 54.3c-1.9 0-3.2-1.4-3.2-3.3 0-2.1 1.2-3.3 3.2-3.3 1.6 0 2.6.9 2.8 2.3h-1.4c-.2-.9-.7-1.2-1.4-1.2-1.1 0-1.8.9-1.8 2.3s.7 2.3 1.8 2.3c.9 0 1.4-.5 1.6-1.4h1.4c-.4 1.4-1.4 2.3-3 2.3zM155.1 54.3c-1.9 0-3.2-1.4-3.2-3.3 0-2.1 1.2-3.3 3.2-3.3 1.6 0 2.6.9 2.8 2.3h-1.4c-.2-.9-.7-1.2-1.4-1.2-1.1 0-1.8.9-1.8 2.3s.7 2.3 1.8 2.3c.9 0 1.4-.5 1.6-1.4h1.4c-.4 1.4-1.5 2.3-3 2.3zM158.9 54.1v-6.3h1.4v4.6l2.3-4.6h1.8v6.3H163v-4.6l-2.3 4.6h-1.8zM172.1 50.9c0 2.1-1.2 3.3-3.2 3.3-1.9 0-3.2-1.2-3.2-3.3s1.2-3.3 3.2-3.3 3.2 1.4 3.2 3.3zm-4.9 0c0 1.4.7 2.3 1.8 2.3s1.8-.9 1.8-2.3-.7-2.3-1.8-2.3-1.8.9-1.8 2.3zM173.3 54.1v-6.3h1.4v2.5h2.8v-2.5h1.4v6.3h-1.4v-2.8h-2.8v2.8h-1.4zM183 47.6c1.4 0 2.6.5 2.6 1.9v3.2c0 .4 0 .5.4.5h.4v1.1c-.5.2-.7.2-.9.2-.5 0-.9-.2-1.1-.7-.5.5-1.4.7-2.3.7-1.2 0-2.1-.7-2.1-1.9 0-1.8 1.6-1.8 2.8-1.9 1.1-.2 1.2-.2 1.4-.4v-.5c0-.7-.4-.9-1.2-.9s-1.2.4-1.4 1.1h-1.4c.1-1.7 1.2-2.4 2.8-2.4zm-.2 3.7c-.7.2-1.4.2-1.4 1.1 0 .5.4.9 1.1.9.5 0 1.1-.2 1.4-.5s.4-.7.4-1.1V51c-.6.3-1 .3-1.5.3zM191.2 54.1v-5.3h-1.9v2.8c0 1.6-.7 2.6-1.9 2.6-.4 0-.7 0-.9-.2v-1.1h.5c.4 0 .9-.4.9-1.6l.2-3.7h4.7v6.3h-1.6zM197.4 54.1H194v-6.3h1.4v2.3h1.9c1.4 0 2.1.7 2.1 1.9.1 1.4-.6 2.1-2 2.1zm-.2-2.8h-1.8v1.9h1.8c.7 0 .9-.4.9-.9 0-.7-.2-1-.9-1zM200.7 54.1v-6.3h1.4v2.5h2.8v-2.5h1.4v6.3h-1.4v-2.8h-2.8v2.8h-1.4zM210.7 54.1h-3.2v-6.3h1.4v2.3h1.8c1.4 0 2.1.7 2.1 1.9 0 1.4-.7 2.1-2.1 2.1zm-.2-2.8H209v1.9h1.6c.7 0 .9-.4.9-.9-.1-.7-.4-1-1-1zm4.6-3.5v6.3h-1.4v-6.3h1.4zM216 47.8h1.8l1.4 1.9 1.4-1.9h1.6l-2.1 3 2.5 3.3h-1.8l-1.6-2.3-1.6 2.3H216l2.5-3.3-2.5-3zM226.5 54.1v-6.3h5.6v6.3h-1.4v-5.3h-2.8v5.3h-1.4zM236.2 54.3c-1.9 0-3.2-1.4-3.2-3.3s1.2-3.3 3-3.3c1.9 0 3 1.4 3 3.5v.2h-4.7c0 1.2.7 1.9 1.8 1.9.7 0 1.2-.4 1.6-1.2h1.4c-.3 1.5-1.5 2.2-2.9 2.2zm0-5.6c-.9 0-1.4.5-1.6 1.8h3.2c0-1.1-.7-1.8-1.6-1.8zM241.6 48.7c.5-.7 1.2-1.1 2.1-1.1 1.8 0 2.8 1.4 2.8 3.3s-1.1 3.3-2.8 3.3c-.9 0-1.6-.4-2.1-1.1v3.2h-1.4v-8.6h1.2v.9h.2zm0 2.2c0 1.4.7 2.3 1.8 2.3s1.8-.9 1.8-2.1c0-1.4-.7-2.3-1.8-2.3s-1.8.7-1.8 2.1zM250.6 54.3c-1.9 0-3.2-1.4-3.2-3.3s1.2-3.3 3-3.3c1.9 0 3 1.4 3 3.5v.2h-4.7c0 1.2.7 1.9 1.8 1.9.7 0 1.2-.4 1.6-1.2h1.4c-.5 1.5-1.5 2.2-2.9 2.2zm-.2-5.6c-.9 0-1.4.5-1.6 1.8h3.2c0-1.1-.5-1.8-1.6-1.8zM257.8 54.1h-3.3v-6.3h3.5c1.2 0 1.9.5 1.9 1.6 0 .7-.4 1.1-.9 1.4.9.2 1.2.7 1.2 1.6 0 1.2-.8 1.7-2.4 1.7zm-2-5.3v1.4h1.8c.5 0 .9-.4.9-.7s-.4-.7-.9-.7h-1.8zm0 2.5v1.8h1.9c.5 0 .9-.4.9-.9s-.4-.9-.9-.9h-1.9zM267.4 50.9c0 2.1-1.2 3.3-3.2 3.3S261 53 261 50.9s1.2-3.3 3.2-3.3 3.2 1.4 3.2 3.3zm-4.9 0c0 1.4.7 2.3 1.8 2.3s1.8-.9 1.8-2.3-.7-2.3-1.8-2.3c-1.3.2-1.8.9-1.8 2.3zM273.6 56.2v-1.9H269v1.9h-1.4V53h.9c.5-1.1.7-2.5.7-4.6v-.7h4.7V53h.9v3.2h-1.2zm-.9-7.4h-2.1v.5c0 1.4-.4 3.2-.7 3.7h2.6v-4.2h.2zM281.8 50.9c0 2.1-1.2 3.3-3.2 3.3s-3.2-1.2-3.2-3.3 1.2-3.3 3.2-3.3 3.2 1.4 3.2 3.3zm-4.9 0c0 1.4.7 2.3 1.8 2.3s1.8-.9 1.8-2.3-.7-2.3-1.8-2.3c-1.1.2-1.8.9-1.8 2.3zM286.4 54.1h-3.3v-6.3h3.5c1.2 0 1.9.5 1.9 1.6 0 .7-.4 1.1-.9 1.4.9.2 1.2.7 1.2 1.6-.1 1.2-1 1.7-2.4 1.7zm-1.9-5.3v1.4h1.8c.5 0 .9-.4.9-.7s-.4-.7-.9-.7h-1.8zm0 2.5v1.8h1.9c.5 0 .9-.4.9-.9s-.4-.9-.9-.9h-1.9z"/><g><path class="st1" d="M90.4 38.7h-5.9l-1.4-4h-7.5l-1.4 4h-5.8l8.1-21.8h5.8l8.1 21.8zM79.4 23l-2.5 7.6h5L79.4 23zM106.6 21.7h-6.5v17h-5.8v-17h-6.5v-4.8h18.7l.1 4.8zM127.9 38.7h-5.7v-17h-4.8l-.3 8.5c-.2 6.1-2.9 8.9-6.7 8.9-.9 0-2.4-.2-3-.4v-4.6c.4.2 1.1.3 1.7.3 1.3 0 2.3-.6 2.4-5l.4-12.5h16v21.8zM151.6 38.7h-5.9l-1.4-4h-7.5l-1.4 4h-5.9l8.2-21.8h5.8l8.1 21.8zm-11-15.7l-2.5 7.6h5l-2.5-7.6zM172.1 38.7h-5.7v-9H159v9h-5.7V16.9h5.7v7.8h7.4v-7.8h5.7v21.8zM193.3 21.7h-6.5v17H181v-17h-6.5v-4.8h18.7v4.8h.1z"/></g></g></svg>