<?xml version="1.0" encoding="utf-8"?>
<!-- Generator: Adobe Illustrator 19.2.1, SVG Export Plug-In . SVG Version: 6.00 Build 0)  -->
<svg version="1.1" id="Layer_1" xmlns="http://www.w3.org/2000/svg" xmlns:xlink="http://www.w3.org/1999/xlink" x="0px" y="0px"
	 viewBox="0 0 512 512" style="enable-background:new 0 0 512 512;" xml:space="preserve">
<style type="text/css">
	.st0{fill:#068246;}
	.st1{fill:#0E442C;}
	.st2{fill:#CDD4D5;}
	.st3{fill:#E6EAEA;}
	.st4{fill:#9BAAAB;}
	.st5{fill:#B4B6BC;}
	.st6{fill:#009BCA;}
	.st7{fill:#4BB9EC;}
	.st8{fill:#868491;}
	.st9{fill:#5C546A;}
	.st10{fill:#F0353D;}
	.st11{fill:#365558;}
</style>
<path class="st0" d="M464.7,34.8H121.2c-4.5,0-8.2,3.7-8.2,8.2v417.4c0,4.5,3.6,8.2,8.2,8.2h343.5c4.5,0,8.2-3.6,8.2-8.2V42.9
	C472.9,38.4,469.2,34.8,464.7,34.8z"/>
<path class="st1" d="M121.2,34.8c-4.5,0-8.2,3.7-8.2,8.2v417.4c0,4.5,3.6,8.2,8.2,8.2h173.9V34.8H121.2z"/>
<path class="st2" d="M369.1,108.7H47.3c-4.5,0-8.2,3.7-8.2,8.2v304.4c0,2.2,0.9,4.2,2.4,5.8l82.6,82.6c1.5,1.5,3.6,2.4,5.8,2.4
	h239.2c4.5,0,8.2-3.6,8.2-8.2v-387C377.2,112.4,373.6,108.7,369.1,108.7z"/>
<path class="st3" d="M47.3,108.7c-4.5,0-8.2,3.7-8.2,8.2v304.4c0,2.2,0.9,4.2,2.4,5.8l82.6,82.6c1.5,1.5,3.6,2.4,5.8,2.4h78.3V108.7
	H47.3z"/>
<path class="st4" d="M39.1,421.2c0,2.1,0.8,4.2,2.4,5.8l82.6,82.6c1.6,1.6,3.6,2.4,5.8,2.4v-82.6c0-4.5-3.7-8.2-8.2-8.2L39.1,421.2
	L39.1,421.2z"/>
<g>
	<g>
		<path class="st5" d="M369.7,434.2c-7.1-7.1-24.3-24.3-31.4-31.4c-1.7-1.7-4.5-1.7-6.3,0l0,0c-19.2,19.2-22,59.6-22,59.6
			s40.4-2.7,59.6-22l0,0C371.4,438.7,371.4,435.9,369.7,434.2z"/>
	</g>
	<g>
		<path class="st5" d="M375.9,365.1l31.4,31.4c1.7,1.7,4.5,1.7,6.3,0l84.7-84.7c1.7-1.7,1.7-4.5,0-6.3l-15.7-15.7L467,274.1
			c-1.7-1.7-4.5-1.7-6.3,0L376,358.8C374.2,360.6,374.2,363.4,375.9,365.1z"/>
	</g>
	<g>
		<path class="st6" d="M495.2,302.3l12.6-12.6c3.5-3.5,3.5-9.1,0-12.6l-12.6-12.6c-3.5-3.5-9.1-3.5-12.6,0L470,277.1L495.2,302.3z"
			/>
	</g>
	<g>
		<path class="st6" d="M379.1,418.5c3.5,3.5,3.5,9.1,0,12.6s-9.1,3.5-12.6,0L341.4,406c-3.5-3.5-3.5-9.1,0-12.6s9.1-3.5,12.6,0
			L379.1,418.5z"/>
	</g>
	<g>
		<path class="st7" d="M379.1,418.5l-12.6-12.6l-12.6,12.6l12.6,12.6c3.5,3.5,9.1,3.5,12.6,0C382.5,427.6,382.5,421.9,379.1,418.5z"
			/>
	</g>
	<g>
		<path class="st6" d="M391.6,405.9c3.5,3.5,3.5,9.1,0,12.6s-9.1,3.5-12.6,0l-25-25.1c-3.5-3.5-3.5-9.1,0-12.6s9.1-3.5,12.6,0
			L391.6,405.9z"/>
	</g>
	<g>
		<path class="st7" d="M391.6,405.9L379,393.3l-12.6,12.6l12.6,12.6c3.5,3.5,9.1,3.5,12.6,0S395.1,409.4,391.6,405.9z"/>
	</g>
	<g>
		<path class="st6" d="M404.2,393.4c3.5,3.5,3.5,9.1,0,12.6s-9.1,3.5-12.6,0l-25.1-25.1c-3.5-3.5-3.5-9.1,0-12.6s9.1-3.5,12.6,0
			L404.2,393.4z"/>
	</g>
	<g>
		<path class="st7" d="M404.2,393.4l-12.6-12.6L379,393.3l12.6,12.6c3.5,3.5,9.1,3.5,12.6,0S407.7,396.8,404.2,393.4z"/>
	</g>
	<g>
		<path class="st8" d="M353.9,418.4c-6.1-6.1-12.1-12.1-15.6-15.6c-1.7-1.7-4.5-1.7-6.3,0l0,0c-18.7,18.7-21.8,57.5-22,59.4
			L353.9,418.4z"/>
	</g>
	<g>
		<path class="st8" d="M482.6,289.7L467,274.1c-1.7-1.7-4.5-1.7-6.3,0L376,358.8c-1.7,1.7-1.7,4.5,0,6.3l15.6,15.6L482.6,289.7z"/>
	</g>
	<g>
		<g>
			<path class="st9" d="M435.6,399.6c-1.7-1.7-1.7-4.5,0-6.3l56.5-56.5c1.7-1.7,1.7-4.5,0-6.3l-43.9-43.9c-1.7-1.7-1.7-4.5,0-6.3
				s4.5-1.7,6.3,0l43.9,43.9c5.2,5.2,5.2,13.6,0,18.8l-56.5,56.5C440.1,401.4,437.3,401.4,435.6,399.6z"/>
		</g>
	</g>
	<g>
		<path class="st7" d="M507.8,277.2l-6.4-6.4l-18.8,18.8l12.6,12.6l12.6-12.6C511.2,286.3,511.2,280.7,507.8,277.2z"/>
	</g>
	<g>
		<path class="st9" d="M300.6,465.5c-1.7,1.7-1.7,4.5,0,6.3s4.5,1.7,6.3,0l10.2-10.2l-6.3-6.3L300.6,465.5z"/>
	</g>
</g>
<path class="st10" d="M264.2,29.9c0-16.5-13.4-29.9-29.9-29.9h-34.8c-16.5,0-29.9,13.4-29.9,29.9v143.5c0,16.5,13.4,29.9,29.9,29.9
	h13c16.5,0,29.9-13.4,29.9-29.9V69c0-4.5-3.6-8.2-8.2-8.2S226,64.5,226,69v104.4c0,7.5-6.1,13.6-13.6,13.6h-13
	c-7.5,0-13.6-6.1-13.6-13.6V29.9c0-7.5,6.1-13.6,13.6-13.6h34.8c7.5,0,13.6,6.1,13.6,13.6v4.3h16.3v-4.3
	C264.1,29.9,264.2,29.9,264.2,29.9z"/>
<path class="st11" d="M317.3,237.8H99.1c-4.6,0-8.3-3.8-8.3-8.3v0c0-4.6,3.8-8.3,8.3-8.3h218.2c4.6,0,8.4,3.8,8.4,8.3v0
	C325.6,234.1,321.9,237.8,317.3,237.8z"/>
<path class="st11" d="M317.3,286.4H99.1c-4.6,0-8.3-3.8-8.3-8.3v0c0-4.6,3.8-8.4,8.3-8.4h218.2c4.6,0,8.4,3.8,8.4,8.4v0
	C325.6,282.6,321.9,286.4,317.3,286.4z"/>
<path class="st11" d="M317.3,334.9H99.1c-4.6,0-8.3-3.8-8.3-8.4v0c0-4.6,3.8-8.3,8.3-8.3h218.2c4.6,0,8.4,3.8,8.4,8.3v0
	C325.6,331.2,321.9,334.9,317.3,334.9z"/>
<path class="st11" d="M317.3,383.5h-84.9c-4.6,0-8.3-3.8-8.3-8.4l0,0c0-4.6,3.8-8.4,8.3-8.4h84.9c4.6,0,8.4,3.8,8.4,8.4l0,0
	C325.6,379.7,321.9,383.5,317.3,383.5z"/>
</svg>
